<?xml version="1.0" encoding="utf-8"?>
<!-- Generator: Adobe Illustrator 22.0.1, SVG Export Plug-In . SVG Version: 6.00 Build 0)  -->
<svg version="1.1" id="圖層_1" xmlns="http://www.w3.org/2000/svg" xmlns:xlink="http://www.w3.org/1999/xlink" x="0px" y="0px"
	 viewBox="0 0 500 500" style="enable-background:new 0 0 500 500;" xml:space="preserve">
<style type="text/css">
	.st0{fill:#F0F0F0;}
	.st1{fill:#E0E0E0;}
	.st2{fill:#FAFAFA;}
	.st3{fill:#FFFFFF;}
	.st4{fill:#EBEBEB;}
	.st5{fill:#263238;}
	.st6{fill:#455A64;}
	.st7{fill:#37474F;}
	.st8{fill:#27DEBF;}
	.st9{opacity:0.45;fill:#FFFFFF;enable-background:new    ;}
	.st10{opacity:0.35;enable-background:new    ;}
	.st11{opacity:0.15;enable-background:new    ;}
	.st12{opacity:0.65;fill:#FFFFFF;enable-background:new    ;}
	.st13{opacity:0.1;enable-background:new    ;}
	.st14{opacity:0.5;enable-background:new    ;}
	.st15{opacity:0.4;enable-background:new    ;}
	.st16{opacity:0.2;enable-background:new    ;}
	.st17{opacity:0.3;fill:#FFFFFF;enable-background:new    ;}
	.st18{opacity:0.2;fill:#FFFFFF;enable-background:new    ;}
	.st19{opacity:0.3;enable-background:new    ;}
	.st20{fill:#E6E6E6;}
	.st21{opacity:5.000000e-02;enable-background:new    ;}
	.st22{opacity:0.4;fill:#FFFFFF;enable-background:new    ;}
	.st23{fill:none;stroke:#E0E0E0;stroke-width:2;stroke-linecap:round;stroke-linejoin:round;stroke-miterlimit:10;}
	.st24{fill:none;stroke:#27DEBF;stroke-width:4;stroke-linecap:round;stroke-miterlimit:10;}
	.st25{fill:#F28F8F;}
	.st26{opacity:0.4;}
	.st27{fill:#FFA8A7;}
</style>
<g id="Floor">
	<ellipse id="Floor_6_" class="st0" cx="250.5" cy="336" rx="235.2" ry="133.5"/>
</g>
<g id="Shadows">
	<path id="Shadow_22_" class="st1" d="M356.8,313L324,294.1c-1.1-0.7-1.1-1.7,0-2.4l41.8-24.1c1.1-0.7,3-0.7,4.2,0l32.7,18.9
		c1.1,0.7,1.1,1.7,0,2.4L360.9,313C359.8,313.7,357.9,313.7,356.8,313z"/>
	<ellipse id="Shadow_21_" class="st1" cx="426" cy="342.7" rx="50.5" ry="34.3"/>
	<path id="Shadow_4_" class="st1" d="M101.7,400.2l-79.7-46c-1.1-0.7-1.1-1.7,0-2.4l124.8-72.1c1.1-0.7,3-0.7,4.1,0l79.7,46
		c1.1,0.7,1.1,1.7,0,2.4l-124.8,72.1C104.6,400.9,102.8,400.9,101.7,400.2z"/>
	<path id="Shadow_9_" class="st1" d="M112.2,392.9l18.4,10.6c1.4,0.8,3.6,0.8,5,0l229.2-132.3c1.4-0.8,1.4-2.1,0-2.9l-18.6-10.7
		c-1.4-0.8-3.6-0.8-5,0L112.2,390C110.8,390.8,110.8,392.1,112.2,392.9z"/>
</g>
<g id="Gears_1_">
	<g id="Gears">
		<g id="XMLID_1037_">
			<path id="XMLID_1042_" class="st1" d="M96.1,64.7L96.1,64.7c-0.2-0.1-0.5-0.1-0.8,0.1l-1.8,1.1l-0.4,1c-0.2,0.6,0,1.4,0.5,1.9
				c0.3,0.3,0.5,0.6,0.8,1c0.4,0.5,1.1,0.7,1.6,0.4l4.1-2.6c0.3-0.2,0.6-0.2,0.8-0.1L96.1,64.7z M89.8,79.3
				c-0.6-3.2-2.7-4.8-5.4-4.6c0.2,0.5,0.4,1.2,0.6,1.9c0.9,5.1-2.4,12.4-7.4,16.2c-1.8,1.4-3.7,2.2-5.2,2.3
				c1.6,3.4,5.8,3.8,10.1,0.4C87.4,91.6,90.7,84.4,89.8,79.3z M89.9,57.4L89.9,57.4c-0.1,0-0.2-0.1-0.3-0.1l-3.1-0.7
				c-0.7-0.1-1.4,0.2-1.7,0.8l-2.9,5.4c-0.1,0.3-0.4,0.5-0.6,0.7l0,0c-0.2,0.1-0.3,0.2-0.5,0.3l0.9,2.9c0.2,0.6,0.8,0.9,1.5,0.6
				c0.6-0.3,1.3-0.5,1.9-0.6c0.4-0.1,0.8-0.3,1.1-0.6c0.3-0.2,0.5-0.5,0.7-0.7l2.9-5.4c0.3-0.6,1.1-0.9,1.7-0.8l3.1,0.7
				c0.1,0,0.2,0.1,0.3,0.1L89.9,57.4z M81.2,109.5c-0.1-0.1-0.2-0.3-0.3-0.5l-1-3.4c-0.2-0.6-0.8-0.9-1.5-0.6
				c-0.6,0.3-1.3,0.5-1.9,0.6c-0.2,0-0.4,0.1-0.6,0.2l0.1,0.4c0.1,0.3,0.2,0.4,0.4,0.5l0,0L81.2,109.5z M75.3,60.2
				c-0.1-0.1-0.2-0.1-0.3-0.1c-0.2,0-0.4,0.1-0.6,0.2l-4.6,3.5c-0.1,0-0.1,0.1-0.2,0.2l-0.1,0.1c-0.2,0.2-0.3,0.4-0.4,0.7
				c0,0.1,0,0.1-0.1,0.2l0,0c-0.1,0.3-0.1,0.5-0.1,0.7l0.3,4.3c0,0.7-0.3,1.6-0.7,2.1c-0.8,0.9-1.5,1.8-2.1,2.8
				c-0.2,0.3-0.6,0.6-1,0.8c-0.1,0.1-0.3,0.1-0.4,0.1s-0.1,0-0.2,0s-0.2,0-0.3,0l-3-0.1h-0.1c-0.1,0-0.2,0-0.2,0c-0.1,0-0.1,0-0.2,0
				l0,0c-0.1,0-0.2,0.1-0.2,0.1c-0.2,0.1-0.3,0.2-0.4,0.3c-0.2,0.2-0.4,0.4-0.5,0.6l-2.9,6c-0.3,0.5,0,1.2,0.5,1.5l3.3,1.8
				c0.1,0.3,0.1,0.6,0.1,0.8c-0.2,1-0.4,2-0.5,2.9c-0.1,0.6-0.5,1.5-1,2l0,0l-4,3.6c-0.1,0.1-0.1,0.1-0.2,0.2l0,0
				c-0.1,0.1-0.1,0.2-0.2,0.3c-0.3,0.4-0.4,1-0.3,1.5l0.8,4.3c0,0.3,0.2,0.5,0.4,0.6l4.8,2.7c-0.2-0.1-0.3-0.3-0.3-0.6l-0.8-4.3
				c0-0.3,0-0.6,0-0.8c0.1-0.4,0.3-0.9,0.6-1.1l4-3.6l0,0c0.5-0.4,0.9-1.3,1-2c0.1-1,0.3-1.9,0.5-2.9c0.1-0.6-0.2-1.4-0.8-1.6
				l-2.4-1c-0.6-0.3-0.9-1-0.6-1.5l2.8-6.1c0.1-0.2,0.3-0.4,0.5-0.6c0.3-0.3,0.8-0.5,1.2-0.4l3,0.1c0.3,0,0.6,0,0.9-0.2
				c0.4-0.2,0.8-0.4,1-0.8c0.7-1,1.4-1.9,2.1-2.8c0.4-0.5,0.8-1.4,0.7-2.1l-0.3-4.3c0-0.2,0-0.5,0.1-0.7c0.1-0.5,0.4-0.9,0.8-1.2
				l4.6-3.5c0.3-0.2,0.7-0.3,0.9-0.1L75.3,60.2z M68.4,105.5c0.2-0.6,0-1.4-0.5-1.9c-0.3-0.3-0.5-0.6-0.8-1
				c-0.4-0.5-1.1-0.7-1.6-0.4l-2.3,1.5l-1.7,4.5c-0.2,0.5,0,1,0.4,1.2l0,0l4.9,2.7c-0.4-0.3-0.6-0.7-0.4-1.2L68.4,105.5z"/>
			<path class="st2" d="M64.1,94.5l-4,3.6c-0.3,0.3-0.5,0.7-0.6,1.1l-4.8-2.7c0.1-0.2,0.1-0.4,0.2-0.6c0-0.1,0.1-0.2,0.2-0.3l0,0
				c0.1-0.1,0.1-0.1,0.2-0.2l4-3.6L64.1,94.5z"/>
			<path class="st2" d="M70.1,78.3c-0.3,0.1-0.6,0.2-0.9,0.2l-3-0.1c-0.4,0-0.9,0.2-1.2,0.4L60.2,76c0.1-0.1,0.3-0.2,0.4-0.3
				c0.1,0,0.2-0.1,0.2-0.1l0,0c0.1,0,0.1,0,0.2,0c0.1,0,0.2,0,0.2,0h0.1l3,0.1c0.1,0,0.2,0,0.3,0c0.1,0,0.1,0,0.2,0s0.3-0.1,0.4-0.1
				l0,0L70.1,78.3z"/>
			<path id="XMLID_1041_" class="st2" d="M100.9,67.4c-0.2-0.1-0.5-0.1-0.8,0.1L96,70.1c-0.6,0.4-1.3,0.2-1.6-0.4
				c-0.3-0.3-0.5-0.7-0.8-1c-0.5-0.5-0.7-1.3-0.5-1.9l0.4-1l1.8-1.1c0.3-0.2,0.6-0.2,0.8-0.1l0,0L100.9,67.4z"/>
			<path class="st2" d="M94.7,60.2c-0.1,0-0.2-0.1-0.3-0.1l-3.1-0.7c-0.6-0.1-1.4,0.2-1.7,0.8l-2.9,5.4c-0.1,0.3-0.4,0.5-0.7,0.7
				l-4.9-2.7c0.3-0.2,0.5-0.5,0.6-0.7l2.9-5.4c0.3-0.6,1.1-0.9,1.7-0.8l3.1,0.7c0.1,0,0.2,0.1,0.3,0.1l0,0L94.7,60.2z"/>
			<path class="st2" d="M80.2,62.9c-0.3-0.1-0.6-0.1-0.9,0.1l-4.6,3.5c-0.3,0.3-0.6,0.7-0.8,1.2L69,65c0-0.1,0-0.1,0.1-0.2
				c0.1-0.3,0.2-0.5,0.4-0.7l0.1-0.1c0.1-0.1,0.1-0.1,0.2-0.2l4.6-3.5c0.2-0.1,0.4-0.2,0.6-0.2c0.1,0,0.2,0,0.3,0.1L80.2,62.9z"/>
			<path id="XMLID_1038_" class="st0" d="M102.1,72.3l-0.8-4.3c-0.1-0.6-0.7-0.9-1.2-0.5L96,70.1c-0.6,0.4-1.3,0.2-1.6-0.4
				c-0.2-0.3-0.5-0.7-0.8-0.9c-0.5-0.5-0.7-1.3-0.5-1.9l2.1-5.5c0.2-0.6-0.1-1.2-0.8-1.4l-3.1-0.7c-0.7-0.1-1.4,0.2-1.7,0.8
				l-2.9,5.4c-0.3,0.6-1.1,1.1-1.8,1.3c-0.6,0.2-1.3,0.4-1.9,0.6s-1.3,0-1.5-0.6l-1-3.4c-0.2-0.6-0.8-0.8-1.3-0.4l-4.6,3.5
				c-0.5,0.4-0.9,1.3-0.9,1.9l0.3,4.3c0,0.7-0.3,1.6-0.7,2.1c-0.8,0.9-1.5,1.8-2.1,2.8c-0.4,0.5-1.2,1-1.9,0.9l-3-0.1
				c-0.7,0-1.4,0.4-1.7,1l-2.8,6.1c-0.3,0.6,0,1.3,0.6,1.5l2.4,1c0.6,0.3,1,1,0.8,1.6c-0.2,1-0.4,2-0.5,2.9c-0.1,0.6-0.5,1.5-1,2
				L60,98.1c-0.5,0.4-0.8,1.3-0.7,2l0.8,4.3c0.1,0.6,0.7,0.9,1.2,0.5l4.1-2.6c0.6-0.4,1.3-0.2,1.6,0.4c0.2,0.3,0.5,0.7,0.8,0.9
				c0.5,0.5,0.7,1.3,0.5,1.9l-2.1,5.5c-0.2,0.6,0.1,1.2,0.8,1.4l3.1,0.7c0.7,0.1,1.4-0.2,1.7-0.8l2.9-5.4c0.3-0.6,1.1-1.1,1.8-1.3
				c0.6-0.2,1.3-0.4,1.9-0.6s1.3,0,1.5,0.6l1,3.4c0.2,0.6,0.8,0.8,1.3,0.4l4.6-3.5c0.5-0.4,0.9-1.3,0.9-1.9l-0.3-4.3
				c0-0.7,0.3-1.6,0.7-2.1c0.8-0.9,1.5-1.8,2.1-2.8c0.4-0.5,1.2-1,1.9-0.9l3,0.1c0.7,0,1.4-0.4,1.7-1l2.8-6.1c0.3-0.6,0-1.3-0.6-1.5
				l-2.4-1c-0.6-0.3-1-1-0.8-1.6c0.2-1,0.4-2,0.5-2.9c0.1-0.6,0.5-1.5,1-2l4.1-3.7C101.9,73.9,102.2,73,102.1,72.3z M82.4,95.5
				c-5,3.8-9.8,2.8-10.7-2.3c-0.9-5.1,2.4-12.4,7.4-16.2c5-3.8,9.8-2.8,10.7,2.3C90.7,84.4,87.4,91.6,82.4,95.5z"/>
		</g>
		<g id="XMLID_968_">
			<path id="XMLID_1016_" class="st1" d="M101.9,133.9L101.9,133.9c-0.3-0.1-0.6-0.1-1,0.1l-2,1.3l-0.4,1.2c-0.3,0.7,0,1.6,0.6,2.2
				c0.3,0.3,0.6,0.7,0.9,1.1c0.4,0.6,1.3,0.8,1.9,0.4l4.7-3c0.4-0.2,0.7-0.2,1-0.1L101.9,133.9z M94.7,150.8
				c-0.7-3.7-3.1-5.6-6.3-5.3c0.3,0.6,0.5,1.3,0.7,2.2c1,5.9-2.8,14.3-8.6,18.7c-2.1,1.6-4.2,2.5-6.1,2.6c1.9,4,6.7,4.3,11.7,0.5
				C91.9,165.1,95.7,156.7,94.7,150.8z M94.8,125.5L94.8,125.5c-0.1-0.1-0.2-0.1-0.4-0.1l-3.6-0.8c-0.8-0.2-1.7,0.2-2,0.9l-3.4,6.2
				c-0.2,0.3-0.4,0.6-0.7,0.8l0,0c-0.2,0.1-0.4,0.3-0.6,0.4l1,3.4c0.2,0.7,1,1,1.7,0.7s1.5-0.5,2.2-0.7c0.4-0.1,0.9-0.3,1.3-0.6
				c0.3-0.2,0.6-0.5,0.8-0.8l3.3-6.2c0.4-0.7,1.3-1.1,2-0.9l3.6,0.8c0.1,0,0.3,0.1,0.4,0.1L94.8,125.5z M84.7,185.7
				c-0.1-0.1-0.3-0.3-0.3-0.5l-1.2-3.9c-0.2-0.7-1-1-1.7-0.7s-1.5,0.5-2.2,0.7c-0.2,0.1-0.5,0.2-0.7,0.3l0.2,0.5
				c0.1,0.3,0.3,0.5,0.5,0.6l0,0L84.7,185.7z M77.9,128.7c-0.1-0.1-0.3-0.1-0.4-0.1c-0.2,0-0.4,0.1-0.7,0.2l-5.3,4.1
				c-0.1,0.1-0.1,0.1-0.2,0.2c-0.1,0-0.1,0.1-0.1,0.2c-0.2,0.2-0.3,0.5-0.5,0.8c0,0.1,0,0.1-0.1,0.2l0,0c-0.1,0.3-0.2,0.6-0.1,0.8
				l0.3,4.9c0,0.8-0.3,1.8-0.8,2.4c-0.9,1-1.7,2.1-2.5,3.2c-0.3,0.4-0.7,0.7-1.2,0.9c-0.2,0.1-0.3,0.1-0.5,0.1c-0.1,0-0.1,0-0.2,0
				s-0.2,0-0.3,0l-3.4-0.2h-0.1c-0.1,0-0.2,0-0.3,0s-0.2,0-0.3,0.1l0,0c-0.1,0-0.2,0.1-0.3,0.1c-0.2,0.1-0.3,0.2-0.5,0.3
				c-0.2,0.2-0.4,0.4-0.6,0.7l-3.2,7c-0.3,0.6,0,1.3,0.5,1.7l3.8,2.1c0.1,0.3,0.2,0.6,0.1,1c-0.3,1.1-0.5,2.3-0.6,3.4
				c-0.1,0.7-0.6,1.8-1.1,2.3h-0.1l-4.7,4.2c-0.1,0.1-0.2,0.2-0.2,0.2l0,0c-0.1,0.1-0.1,0.2-0.2,0.3c-0.3,0.5-0.4,1.2-0.4,1.7l0.9,5
				c0.1,0.3,0.2,0.5,0.4,0.7l5.6,3.1c-0.2-0.1-0.3-0.4-0.4-0.7l-0.9-5c-0.1-0.3,0-0.6,0.1-1c0.1-0.5,0.4-1,0.7-1.3l4.7-4.2h0.1
				c0.6-0.5,1.1-1.5,1.2-2.3c0.1-1.1,0.3-2.2,0.6-3.4c0.2-0.7-0.2-1.6-1-1.9l-2.8-1.1c-0.7-0.3-1-1.1-0.7-1.8l3.2-7
				c0.1-0.3,0.3-0.5,0.6-0.7c0.4-0.3,0.9-0.5,1.4-0.5l3.4,0.2c0.3,0,0.7-0.1,1-0.2c0.5-0.2,0.9-0.5,1.2-0.9c0.8-1.1,1.6-2.2,2.5-3.2
				c0.5-0.6,0.9-1.6,0.8-2.4L76,138c0-0.3,0-0.6,0.1-0.9c0.2-0.5,0.5-1.1,0.9-1.4l5.3-4.1c0.4-0.3,0.8-0.3,1.1-0.1L77.9,128.7z
				 M69.9,181.1c0.3-0.7,0-1.6-0.6-2.2c-0.3-0.3-0.6-0.7-0.9-1.1c-0.4-0.6-1.3-0.8-1.9-0.4l-2.7,1.7l-2,5.2c-0.2,0.6,0,1.1,0.5,1.4
				l0,0l5.6,3.2c-0.5-0.3-0.7-0.9-0.5-1.4L69.9,181.1z"/>
			<path class="st2" d="M65,168.4l-4.7,4.2c-0.3,0.3-0.6,0.8-0.7,1.3l-5.6-3.1c0.1-0.3,0.2-0.5,0.3-0.7c0-0.1,0.1-0.2,0.2-0.3l0,0
				c0.1-0.1,0.1-0.2,0.2-0.2l4.7-4.2L65,168.4z"/>
			<path class="st2" d="M72,149.7c-0.3,0.1-0.7,0.2-1,0.2l-3.4-0.2c-0.5,0-1,0.2-1.4,0.5l-5.6-3.2c0.1-0.1,0.3-0.2,0.5-0.3
				c0.1,0,0.2-0.1,0.3-0.1l0,0c0.1,0,0.2,0,0.3-0.1c0.1,0,0.2,0,0.3,0h0.1l3.4,0.2c0.1,0,0.2,0,0.3,0c0.1,0,0.1,0,0.2,0
				s0.3-0.1,0.4-0.1l0,0L72,149.7z"/>
			<path id="XMLID_1012_" class="st2" d="M107.5,137c-0.3-0.1-0.6-0.1-1,0.1l-4.7,3c-0.6,0.4-1.4,0.2-1.9-0.4
				c-0.3-0.4-0.6-0.8-0.9-1.1c-0.5-0.5-0.8-1.5-0.6-2.2l0.4-1.2l2-1.3c0.4-0.2,0.7-0.2,1-0.1l0,0L107.5,137z"/>
			<path class="st2" d="M100.4,128.7c-0.1-0.1-0.2-0.1-0.4-0.1l-3.6-0.8c-0.7-0.2-1.7,0.2-2,0.9l-3.3,6.2c-0.2,0.3-0.4,0.6-0.8,0.8
				l-5.6-3.2c0.3-0.3,0.6-0.5,0.7-0.8l3.4-6.2c0.4-0.7,1.3-1.1,2-0.9l3.6,0.8c0.1,0,0.3,0.1,0.4,0.1l0,0L100.4,128.7z"/>
			<path class="st2" d="M83.5,131.8c-0.3-0.2-0.7-0.1-1.1,0.1l-5.3,4.1c-0.4,0.3-0.7,0.8-0.9,1.4l-5.6-3.1c0-0.1,0-0.1,0.1-0.2
				c0.1-0.3,0.3-0.6,0.5-0.8c0-0.1,0.1-0.1,0.1-0.2c0.1-0.1,0.1-0.1,0.2-0.2l5.3-4.1c0.2-0.2,0.4-0.2,0.7-0.2c0.1,0,0.3,0,0.4,0.1
				L83.5,131.8z"/>
			<path id="XMLID_970_" class="st0" d="M108.9,142.7l-0.9-5c-0.1-0.7-0.8-1-1.4-0.6l-4.7,3c-0.6,0.4-1.5,0.2-1.9-0.4
				c-0.3-0.4-0.6-0.8-0.9-1.1c-0.5-0.5-0.8-1.5-0.6-2.2l2.4-6.3c0.3-0.7-0.1-1.4-0.9-1.6l-3.6-0.8c-0.8-0.2-1.7,0.2-2,0.9l-3.3,6.2
				c-0.4,0.7-1.3,1.3-2,1.5s-1.4,0.4-2.2,0.7c-0.7,0.3-1.5,0-1.7-0.7l-1.2-3.9c-0.2-0.7-0.9-0.9-1.5-0.5l-5.3,4.1
				c-0.6,0.5-1.1,1.5-1,2.2l0.3,4.9c0,0.8-0.3,1.8-0.8,2.4c-0.9,1-1.7,2.1-2.5,3.2c-0.4,0.6-1.4,1.1-2.2,1.1l-3.4-0.2
				c-0.8,0-1.7,0.5-2,1.2l-3.2,7c-0.3,0.7,0,1.5,0.7,1.8l2.8,1.2c0.7,0.3,1.1,1.1,1,1.9c-0.3,1.1-0.5,2.3-0.6,3.4
				c-0.1,0.7-0.6,1.8-1.2,2.3l-4.7,4.2c-0.6,0.5-0.9,1.5-0.8,2.3l0.9,5c0.1,0.7,0.8,1,1.4,0.6l4.7-3c0.6-0.4,1.5-0.2,1.9,0.4
				c0.3,0.4,0.6,0.8,0.9,1.1c0.5,0.5,0.8,1.5,0.6,2.2l-2.4,6.3c-0.3,0.7,0.1,1.4,0.9,1.6l3.6,0.8c0.8,0.2,1.7-0.2,2-0.9l3.3-6.2
				c0.4-0.7,1.3-1.3,2-1.5s1.4-0.4,2.2-0.7c0.7-0.3,1.5,0,1.7,0.7l1.2,3.9c0.2,0.7,0.9,0.9,1.5,0.5l5.3-4.1c0.6-0.5,1.1-1.5,1-2.2
				l-0.3-4.9c0-0.8,0.3-1.8,0.8-2.4c0.9-1,1.7-2.1,2.5-3.2c0.4-0.6,1.4-1.1,2.2-1.1l3.4,0.2c0.8,0,1.7-0.5,2-1.2l3.2-7
				c0.3-0.7,0-1.5-0.7-1.8l-2.8-1.2c-0.7-0.3-1.1-1.1-1-1.9c0.3-1.1,0.5-2.3,0.6-3.4c0.1-0.7,0.6-1.8,1.2-2.3l4.7-4.2
				C108.7,144.5,109,143.5,108.9,142.7z M86.1,169.5c-5.8,4.4-11.3,3.2-12.4-2.7c-1-5.9,2.8-14.3,8.6-18.7
				c5.8-4.4,11.3-3.2,12.4,2.7C95.7,156.7,91.9,165.1,86.1,169.5z"/>
		</g>
		<g id="XMLID_790_">
			<path id="XMLID_965_" class="st1" d="M127.7,122.8c0.3-0.6,0.2-1.4-0.1-1.9c-0.7-1.2-1.4-2.5-1.8-4c-0.2-0.6-0.8-0.9-1.4-0.6
				l-2,0.9c0.2,0.4,0.4,0.8,0.7,1.2c0.3,0.5,0.4,1.4,0.1,1.9l-5.5,10.8c-0.3,0.6-0.1,1.3,0.5,1.6l4.5,2.5c-0.5-0.3-0.7-1-0.4-1.6
				L127.7,122.8z M152.2,47.4c-0.1,0-0.2-0.1-0.3-0.1s-0.3,0-0.5,0.1l-9.3,5.2l-0.1,0.1l-0.1,0.1l-0.1,0.1c-0.1,0.1-0.2,0.2-0.2,0.3
				c-0.3,0.3-0.4,0.7-0.5,1.1l-0.9,10.1c-0.1,0.6-0.5,1.5-1,1.9c-1.8,1.6-3.5,3.4-5.2,5.3c-0.4,0.5-1.2,0.7-1.8,0.5l-6-2
				c-0.2-0.1-0.3-0.1-0.5-0.1l0,0c0,0,0,0-0.1,0h-0.1c-0.1,0-0.1,0-0.2,0c-0.2,0.1-0.4,0.1-0.5,0.3c0,0-0.1,0-0.1,0.1
				c-0.1,0.1-0.2,0.2-0.2,0.3l-6.8,11.5c-0.1,0.3-0.2,0.6-0.1,0.8c0,0.3,0.2,0.7,0.4,0.9l4.8,4c0.5,0.4,0.7,1.2,0.5,1.8
				c-0.9,2.3-1.6,4.7-2.1,7c-0.1,0.3-0.3,0.7-0.5,1.1c0,0.1-0.1,0.1-0.2,0.2s-0.1,0.1-0.2,0.2s-0.2,0.2-0.3,0.3l-8.5,5.8
				c-0.1,0-0.1,0.1-0.2,0.1s-0.1,0.1-0.1,0.2c-0.4,0.4-0.6,1-0.6,1.5v10.4c0,0.3,0.1,0.6,0.3,0.7l4.6,2.6c-0.2-0.1-0.3-0.4-0.3-0.7
				v-10.4c0-0.4,0.1-0.8,0.4-1.2c0.2-0.3,0.4-0.5,0.6-0.6l8.5-5.8c0.2-0.2,0.5-0.4,0.7-0.7c0.2-0.3,0.4-0.7,0.5-1.1
				c0.5-2.3,1.3-4.7,2.2-7c0.2-0.6,0-1.4-0.5-1.8l-4.8-4c-0.3-0.2-0.4-0.5-0.4-0.9c-0.1-0.3,0-0.6,0.1-0.8l6.8-11.5
				c0.2-0.4,0.7-0.6,1.1-0.7c0.2,0,0.4,0,0.5,0.1l6,2c0.6,0.2,1.4,0,1.8-0.5c1.6-1.9,3.3-3.7,5.2-5.3c0.5-0.4,0.9-1.3,1-1.9
				l0.9-10.1c0-0.2,0.1-0.4,0.2-0.6c0.2-0.5,0.5-0.9,0.9-1.1L156,50c0.3-0.1,0.5-0.2,0.7-0.1L152.2,47.4z M145.9,137
				c-0.2-0.1-0.3-0.3-0.3-0.6l-0.9-8.8c-0.1-0.6-0.6-1-1.2-0.9c-1.1,0.2-2.1,0.4-3.1,0.4l0.7,6.7c0,0.3,0.2,0.5,0.4,0.6l0,0
				L145.9,137z M160.4,74c1.3,1.8,2,4.5,2,8.1c0,9.7-7,21.6-15.7,26.5c-3.4,1.9-6.3,2.5-8.5,2c2.8,3.2,7.6,3.6,13.1,0.5
				c8.7-4.9,15.7-16.7,15.7-26.5C167,78.7,164.4,75,160.4,74z M169.5,45.9c-0.6-0.3-1.3-0.1-1.6,0.4L161,56.4l-0.1,0.1
				c0,0.1-0.1,0.1-0.2,0.2l-0.1,0.1l-0.1,0.1c-0.4,0.3-0.9,0.4-1.4,0.4c-0.4,0-0.9,0-1.4,0l0.2,2.1c0.1,0.6,0.6,1,1.2,0.9
				c1.6-0.3,3.1-0.5,4.5-0.4c0.4,0,1-0.2,1.3-0.4c0.2-0.1,0.3-0.3,0.4-0.4l6.9-10.1c0.3-0.5,1.1-0.7,1.6-0.4L169.5,45.9z
				 M182.8,64.6c0,0-0.1,0-0.1-0.1c-0.2,0-0.4,0-0.6,0.1l-6.3,2.7c0.2,0.3,0.3,0.6,0.4,0.9c0.1,0.3,0.2,0.5,0.3,0.8
				c0,0.1,0.1,0.1,0.1,0.2c0.1,0.3,0.2,0.6,0.3,0.9c0,0.1,0,0.1,0.1,0.2c0.1,0.2,0.1,0.3,0.2,0.4l0.1,0.1c0,0,0.1,0,0.1,0.1
				c0.1,0.1,0.2,0.1,0.2,0.1h0.1c0.1,0,0.3,0,0.4,0l0,0l0,0c0.1,0,0.1,0,0.2-0.1l8.3-3.6c0.2-0.1,0.4-0.1,0.6-0.1h0.1L182.8,64.6z"
				/>
			<path class="st2" d="M174,48.5c-0.6-0.3-1.3-0.1-1.6,0.4L165.5,59c-0.1,0.2-0.3,0.3-0.4,0.4l-4.6-2.6l0,0c0.1,0,0.1-0.1,0.2-0.1
				c0.1,0,0.1-0.1,0.2-0.2l0.1-0.1l6.9-10.1c0.4-0.5,1.1-0.7,1.6-0.4L174,48.5z"/>
			<path class="st2" d="M125.1,100.4c-0.2,0.3-0.4,0.5-0.7,0.7l-8.5,5.8c-0.2,0.2-0.4,0.4-0.6,0.6l-4.6-2.6c0.1-0.1,0.2-0.2,0.3-0.4
				c0-0.1,0.1-0.1,0.1-0.2c0,0,0.1-0.1,0.2-0.1l8.5-5.8c0.1-0.1,0.2-0.2,0.3-0.3c0.1-0.1,0.1-0.1,0.2-0.2s0.1-0.1,0.2-0.2l0,0
				L125.1,100.4z"/>
			<path class="st2" d="M130.2,72.6c-0.5,0-0.9,0.3-1.1,0.7l-6.8,11.5c-0.1,0.2-0.2,0.5-0.1,0.8l-4.6-2.6c0-0.3,0-0.6,0.1-0.8
				l6.8-11.5c0.1-0.1,0.1-0.2,0.2-0.3l0.1-0.1c0.2-0.1,0.3-0.2,0.5-0.3c0.1,0,0.1,0,0.2,0h0.1c0,0,0,0,0.1,0l0,0l0,0L130.2,72.6z"/>
			<path class="st2" d="M156.7,50c-0.2-0.1-0.4-0.1-0.7,0.1l-9.3,5.2c-0.4,0.2-0.7,0.6-0.9,1.1l-4.6-2.6c0.1-0.2,0.2-0.3,0.3-0.5
				c0.1-0.1,0.2-0.2,0.2-0.3l0.1-0.1l0.1-0.1l0.1-0.1l9.3-5.2c0.2-0.1,0.3-0.1,0.5-0.1c0.1,0,0.2,0,0.3,0.1L156.7,50z"/>
			<path class="st2" d="M182.8,64.6l4.6,2.6h-0.1c-0.2-0.1-0.4-0.1-0.6,0.1l-8.3,3.6c-0.4,0.2-0.9,0.1-1.1-0.2
				c-0.1-0.1-0.2-0.2-0.2-0.4c0-0.1,0-0.1-0.1-0.2c-0.1-0.3-0.2-0.6-0.3-0.9c0-0.1,0-0.1-0.1-0.2c-0.1-0.3-0.2-0.5-0.3-0.8
				s-0.3-0.6-0.4-0.9l6.3-2.7C182.4,64.5,182.6,64.5,182.8,64.6C182.7,64.6,182.7,64.6,182.8,64.6L182.8,64.6z"/>
			<polygon class="st2" points="187.4,67.2 187.4,67.2 187.4,67.2 			"/>
			<path id="XMLID_917_" class="st0" d="M187.7,78.3V67.9c0-0.6-0.5-0.9-1.1-0.7l-8.3,3.6c-0.6,0.3-1.2,0-1.4-0.6
				c-0.5-1.5-1.1-2.8-1.8-4c-0.3-0.5-0.4-1.4-0.1-2l5.5-10.8c0.3-0.6,0.1-1.3-0.5-1.6l-6-3.4c-0.6-0.3-1.3-0.1-1.6,0.4l-6.9,10.1
				c-0.4,0.5-1.2,0.9-1.8,0.9c-1.4,0-2.9,0.1-4.5,0.4c-0.6,0.1-1.2-0.2-1.2-0.9l-0.9-8.8c-0.1-0.6-0.6-0.9-1.1-0.6l-9.3,5.2
				c-0.6,0.3-1.1,1.1-1.1,1.7L144.7,67c-0.1,0.6-0.5,1.5-1,1.9c-1.8,1.6-3.5,3.4-5.2,5.3c-0.4,0.5-1.2,0.7-1.8,0.5l-6-2
				c-0.6-0.2-1.4,0.1-1.7,0.6l-6.8,11.5c-0.3,0.5-0.2,1.3,0.3,1.7l4.8,4c0.5,0.4,0.7,1.2,0.5,1.8c-0.9,2.3-1.6,4.7-2.2,7
				c-0.1,0.6-0.7,1.4-1.2,1.8l-8.5,5.8c-0.5,0.4-0.9,1.2-0.9,1.8v10.4c0,0.6,0.5,0.9,1.1,0.7l8.3-3.6c0.6-0.3,1.2,0,1.4,0.6
				c0.5,1.5,1.1,2.8,1.8,4c0.3,0.5,0.4,1.4,0.1,2l-5.5,10.8c-0.3,0.6-0.1,1.3,0.5,1.6l6,3.4c0.6,0.3,1.3,0.1,1.6-0.4l6.9-10.1
				c0.4-0.5,1.2-0.9,1.8-0.9c1.4,0,2.9-0.1,4.5-0.4c0.6-0.1,1.2,0.2,1.2,0.9l0.9,8.8c0.1,0.6,0.6,0.9,1.1,0.6l9.3-5.2
				c0.6-0.3,1.1-1.1,1.1-1.7L158,120c0.1-0.6,0.5-1.5,1-1.9c1.8-1.6,3.5-3.4,5.2-5.3c0.4-0.5,1.2-0.7,1.8-0.5l6,2
				c0.6,0.2,1.4-0.1,1.7-0.6l6.8-11.5c0.3-0.5,0.2-1.3-0.3-1.7l-4.8-4c-0.5-0.4-0.7-1.2-0.5-1.8c0.9-2.3,1.6-4.7,2.2-7
				c0.1-0.6,0.7-1.4,1.2-1.8l8.5-5.8C187.3,79.7,187.7,78.9,187.7,78.3z M151.3,111.2c-8.7,4.9-15.7,0.9-15.7-8.8s7-21.6,15.7-26.5
				c8.7-4.9,15.7-1,15.7,8.8C167,94.4,160,106.3,151.3,111.2z"/>
		</g>
	</g>
</g>
<g id="Books_1_">
	<g id="Books">
		<g id="Book_2_">
			<g id="XMLID_280_">
				<polygon id="XMLID_5436_" points="34.1,349.6 102.7,388.7 216,323.6 147.4,285.4 				"/>
				<path id="XMLID_5435_" class="st3" d="M103.5,385.7l-66.2-38c1.7-4.9,1.6-10.6-0.4-17.2l65.8,37.6
					C102.7,368.1,103.9,372.3,103.5,385.7z"/>
				<path class="st4" d="M102.7,368.1l-65.8-37.6c0.6,2,1,3.8,1.2,5.6l65.3,37.7C103.2,369.9,102.7,368.1,102.7,368.1z"/>
				<path id="XMLID_556_" class="st5" d="M99.3,362.8c3.5,2,6.4,6.9,6.4,10.9v12.8c0,4-2.8,5.7-6.4,3.6l-65.2-37.4v-3.2l64.4,36.7
					c2.1,1.2,3.8,0.2,3.8-2.2l-0.1-11.9c0-2.4-1.7-5.4-3.8-6.6l-64.3-36.7v-3.6L99.3,362.8z"/>
				<path id="XMLID_549_" class="st6" d="M34.1,325.4l113.3-64.1l65.2,36.5c3.5,2,6.4,6.9,6.4,10.9v12.8c0,2-0.7,3.4-1.9,4.1
					l-113.3,65c1.2-0.7,1.9-2.1,1.9-4.1v-12.8c0-4-2.8-8.9-6.4-10.9L34.1,325.4z"/>
				<path id="XMLID_547_" class="st7" d="M103.8,367.5c1.2,2,1.9,4.2,1.9,6.2v12.8c0,2-0.7,3.4-1.9,4.1l113.3-65
					c1.2-0.7,1.9-2.1,1.9-4.1v-12.8c0-2-0.7-4.2-1.9-6.2L103.8,367.5z"/>
			</g>
		</g>
		<g id="Book_3_">
			<g id="XMLID_558_">
				<polygon id="XMLID_638_" class="st8" points="33.9,317.1 102.9,356.6 208,296.3 139,257.8 				"/>
				<polygon id="XMLID_644_" class="st9" points="33.9,317.1 102.9,356.6 208,296.3 139,257.8 				"/>
				<polygon id="XMLID_646_" class="st10" points="33.9,317.1 102.9,356.6 208,296.3 139,257.8 				"/>
				<path id="XMLID_636_" class="st3" d="M103.6,353.8l-66.8-38.4c1.6-4.5,1.5-9.9-0.3-15.9l66.4,38
					C102.9,337.6,104.1,341.4,103.6,353.8z"/>
				<path class="st4" d="M102.9,337.6l-66.4-38c0.6,2,1,3.8,1.2,5.6l65.9,38C103.4,339.2,102.9,337.6,102.9,337.6z"/>
				<path id="XMLID_629_" class="st8" d="M99.8,332.6c3.3,1.9,5.9,6.4,5.9,10.2v11.9c0,3.7-2.6,5.3-5.9,3.4l-65.9-37.9v-2.9
					L99,354.4c2,1.1,3.5,0.2,3.5-2l-0.1-11c0-2.2-1.6-5-3.5-6.1l-65-37.2v-3.3L99.8,332.6z"/>
				<path id="XMLID_628_" class="st9" d="M99.8,332.6c3.3,1.9,5.9,6.4,5.9,10.2v11.9c0,3.7-2.6,5.3-5.9,3.4l-65.9-37.9v-2.9
					L99,354.4c2,1.1,3.5,0.2,3.5-2l-0.1-11c0-2.2-1.6-5-3.5-6.1l-65-37.2v-3.3L99.8,332.6z"/>
				<path id="XMLID_645_" class="st11" d="M99.8,332.6c3.3,1.9,5.9,6.4,5.9,10.2v11.9c0,3.7-2.6,5.3-5.9,3.4l-65.9-37.9v-2.9
					L99,354.4c2,1.1,3.5,0.2,3.5-2l-0.1-11c0-2.2-1.6-5-3.5-6.1l-65-37.2v-3.3L99.8,332.6z"/>
				<path id="XMLID_570_" class="st8" d="M33.9,294.7L139,235.3l65.9,37c3.3,1.9,5.9,6.4,5.9,10.2v11.9c0,1.9-0.7,3.2-1.7,3.8
					L104,358.4c1.1-0.6,1.7-1.9,1.7-3.8v-11.9c0-3.7-2.6-8.3-5.9-10.2L33.9,294.7z"/>
				<path id="XMLID_564_" class="st12" d="M33.9,294.7L139,235.3l65.9,37c3.3,1.9,5.9,6.4,5.9,10.2v11.9c0,1.9-0.7,3.2-1.7,3.8
					L104,358.4c1.1-0.6,1.7-1.9,1.7-3.8v-11.9c0-3.7-2.6-8.3-5.9-10.2L33.9,294.7z"/>
				<path id="XMLID_562_" class="st8" d="M104,337c1.1,1.8,1.7,3.9,1.7,5.8v11.9c0,1.9-0.7,3.2-1.7,3.8l105-60.4
					c1.1-0.6,1.7-1.9,1.7-3.8v-11.9c0-1.9-0.7-3.9-1.7-5.8L104,337z"/>
				<path id="XMLID_559_" class="st9" d="M104,337c1.1,1.8,1.7,3.9,1.7,5.8v11.9c0,1.9-0.7,3.2-1.7,3.8l105-60.4
					c1.1-0.6,1.7-1.9,1.7-3.8v-11.9c0-1.9-0.7-3.9-1.7-5.8L104,337z"/>
			</g>
		</g>
		<path class="st13" d="M96.7,330.8v25.4l-4.5,2.5l-58.1-33.3l4.5-2.6l-4.7-2.7v-2.9l3-1.7c1.7-4.9,1.4-10.3-0.3-15.9l-2.6-1.5v-3.3
			L96.7,330.8z"/>
		<g id="Book_1_">
			<g id="XMLID_5463_">
				<polygon id="XMLID_5484_" class="st8" points="21.9,289.5 91.6,329.5 196.7,269.2 127,230.1 				"/>
				<polygon id="XMLID_640_" class="st14" points="21.9,289.5 91.6,329.5 196.7,269.2 127,230.1 				"/>
				<path id="XMLID_5483_" class="st3" d="M92.3,326.8l-67.4-39c1.6-4.5,1.5-8.9-0.3-15l67,38.6C91.6,311.4,92.8,314.3,92.3,326.8z"
					/>
				<path class="st4" d="M91.6,311.4l-67-38.6c0.6,2,1,3.8,1.2,5.6l66.5,38.4C92,312.9,91.6,311.4,91.6,311.4z"/>
				<path id="XMLID_5482_" class="st8" d="M88.5,306.5c3.3,1.9,5.9,6.4,5.9,10.2v10.9c0,3.7-2.6,5.3-5.9,3.4L22,292.5v-2.9
					l65.7,37.8c2,1.1,3.5,0.2,3.5-2l-0.1-10.1c0-2.2-1.6-5-3.5-6.1l-65.7-37.8V268L88.5,306.5z"/>
				<path id="XMLID_5481_" class="st15" d="M88.5,306.5c3.3,1.9,5.9,6.4,5.9,10.2v10.9c0,3.7-2.6,5.3-5.9,3.4L22,292.5v-2.9
					l65.7,37.8c2,1.1,3.5,0.2,3.5-2l-0.1-10.1c0-2.2-1.6-5-3.5-6.1l-65.7-37.8V268L88.5,306.5z"/>
				<path id="XMLID_5480_" class="st8" d="M21.9,268L127,207.7l66.5,38.5c3.3,1.9,5.9,6.4,5.9,10.2v10.9c0,1.9-0.7,3.2-1.7,3.8
					L92.6,331.3c1.1-0.6,1.7-1.9,1.7-3.8v-10.9c0-3.7-2.6-8.3-5.9-10.1L21.9,268z"/>
				<path id="XMLID_5466_" class="st16" d="M21.9,268L127,207.7l66.5,38.5c3.3,1.9,5.9,6.4,5.9,10.2v10.9c0,1.9-0.7,3.2-1.7,3.8
					L92.6,331.3c1.1-0.6,1.7-1.9,1.7-3.8v-10.9c0-3.7-2.6-8.3-5.9-10.1L21.9,268z"/>
				<path id="XMLID_5465_" class="st8" d="M92.6,310.8c1.1,1.8,1.7,3.9,1.7,5.8v10.9c0,1.9-0.7,3.2-1.7,3.8L197.7,271
					c1.1-0.6,1.7-1.9,1.7-3.8v-10.9c0-1.9-0.7-3.9-1.7-5.8L92.6,310.8z"/>
				<path id="XMLID_5464_" class="st10" d="M92.6,310.8c1.1,1.8,1.7,3.9,1.7,5.8v10.9c0,1.9-0.7,3.2-1.7,3.8L197.7,271
					c1.1-0.6,1.7-1.9,1.7-3.8v-10.9c0-1.9-0.7-3.9-1.7-5.8L92.6,310.8z"/>
			</g>
		</g>
		<path class="st13" d="M219,309.2L219,309.2v-0.5c0-0.8-0.1-1.5-0.3-2.3l0,0c-0.8-3.4-3.2-7-6.1-8.6l-2.3-1.3
			c0.2-0.6,0.4-1.3,0.4-2.2v-11.9c0-3.7-2.6-8.3-5.9-10.2l-5.7-3.2c0.2-0.5,0.3-1.2,0.3-1.9v-10.9c0-0.2,0-0.5,0-0.7
			c0-0.3-0.1-0.6-0.1-0.9c-0.1-0.4-0.2-0.9-0.3-1.3l0,0c-0.1-0.2-0.2-0.5-0.2-0.7l0,0c-0.3-0.7-0.6-1.4-1-2.1l0,0l-82.3,47.2v20.5
			l-20.3,11.6l1.6,0.9l9.7-5.6l9,5.2v21.4l-7.8,4.5l0,0l-3.6,2H104c-1.1,0.6-2.5,0.5-4.2-0.4l-3.1-1.8l-1.4,0.7l5,2.9
			c1.4,0.8,3.1,0.8,4.4,0l4.5-2.6l6.1,3.5V384L217,325.6c0.3-0.2,0.6-0.4,0.8-0.6c0.7-0.8,1.1-1.9,1.1-3.5L219,309.2z"/>
	</g>
</g>
<g id="Apple_1_">
	<g id="Apple">
		<path id="XMLID_4824_" class="st13" d="M54.7,280.9c9.2,7.1,26.9,8.8,39.5,3.6c12.6-5.1,15.3-15.1,6-22.2s-26.9-8.8-39.5-3.6
			C48.1,263.8,45.5,273.8,54.7,280.9z"/>
		<g id="XMLID_648_">
			<g id="XMLID_4538_">
				<path id="XMLID_4803_" class="st8" d="M67.1,222.9c-5.2,0.3-14.3,1-20,12.7c-6.5,13.3,0,29.8,9.9,36.8c12.5,8.8,32,9.3,43.5-1.2
					c12.7-11.6,13.6-33.5,5-43.1c-8.7-9.6-22-6.9-25.5-5.4C74.7,224.8,71.1,222.6,67.1,222.9z"/>
				<path id="XMLID_4762_" class="st17" d="M61.6,227.5c-3.4-0.3-8.3,2.7-10.8,7.3c-3.2,5.7-3.6,13.8-2.6,19.6
					c2,11.8,13.4,18,14.5,17s-7.2-8.7-2.6-20.5C64.7,239,67.2,228,61.6,227.5z"/>
				<path id="XMLID_4662_" class="st18" d="M59,229.4c-3.4,1.2-7.4,6.7-8.5,10.5c-1,3.9-0.5,6.5,0,7c1,0.8,7.9-6,10.2-9.1
					C64,233.5,64.6,227.5,59,229.4z"/>
				<path id="XMLID_4765_" class="st8" d="M72.5,233c-1.8-1.5-3.6-2.2-4.5,0s4,5.7,9.4,4.1c5.4-1.6,7.3-5.1,7.2-6.9
					c0,0-2.4,3.9-6.1,4.3C76,234.8,73.5,233.7,72.5,233z"/>
				<path id="XMLID_4552_" class="st13" d="M72.5,233c-1.8-1.5-3.6-2.2-4.5,0s4,5.7,9.4,4.1c5.4-1.6,7.3-5.1,7.2-6.9
					c0,0-2.4,3.9-6.1,4.3C76,234.8,73.5,233.7,72.5,233z"/>
			</g>
			<g id="XMLID_665_">
				<path id="XMLID_4536_" class="st7" d="M77.4,235.7c0,0,0-7.9-2.4-14.8c-2.5-6.9-6.8-11.8-8-12.3s-3.2-0.9-5.9-0.9
					c-2.8,0-6.1,1.9-5.2,3c0.9,1.1,4.9,1.9,9.8,6.4s9.5,13.4,9.5,18.6C75.2,235.7,76.2,236.4,77.4,235.7z"/>
				<path id="XMLID_4511_" class="st6" d="M66.8,208.5c-0.1,0-0.2-0.1-0.3-0.1l0,0c-1.2-0.4-3-0.7-5.4-0.7c-2.1,0-4.4,1.1-5.1,2
					c-0.2,0.4,0.4,0.9,2.9,1.3c2.5,0.4,5.1,0.1,7.3-0.7C67.3,209.9,67.7,208.9,66.8,208.5z"/>
				<path id="XMLID_4510_" class="st13" d="M73.8,226.9c-2.2-6.3-8.8-11.5-13.4-13.8l0,0c1.5,0.9,3.3,2.1,5.2,3.9
					c4.9,4.5,9.5,13.4,9.5,18.6c0,0,1,0.7,2.2,0c0,0,0-1.9-0.3-4.6C77,233.6,75.8,232.7,73.8,226.9z"/>
			</g>
			<g id="XMLID_649_">
				<path id="XMLID_661_" class="st8" d="M76.1,224.8c3.4,0.7,8.9-0.6,12.1-4.7c3.8-5,1.3-11.6,1.3-11.6s-6-1.4-10.7,3.3
					C75.5,215.2,75,221.9,76.1,224.8z"/>
				<path id="XMLID_660_" class="st19" d="M76.1,224.8c3.4,0.7,8.9-0.6,12.1-4.7c3.8-5,1.3-11.6,1.3-11.6s-6-1.4-10.7,3.3
					C75.5,215.2,75,221.9,76.1,224.8z"/>
				<path id="XMLID_659_" class="st13" d="M89.5,208.4c0,0-6-1.4-10.7,3.3c-3.4,3.4-3.9,10.1-2.8,13
					C79.2,215.1,89.5,208.4,89.5,208.4z"/>
				<path id="XMLID_650_" class="st8" d="M85.3,209.4c-5,1-8.5,4.9-8.9,10.2c0,0,1.5-4,3.4-6C82.8,210.4,85.3,209.4,85.3,209.4z"/>
			</g>
		</g>
	</g>
</g>
<g id="XMLID_1192_">
	<g id="XMLID_3842_">
		<polygon id="XMLID_3857_" class="st20" points="359,40.8 124.7,176.1 124.7,360.6 124.7,393.8 122.6,392.6 119.4,390.7 
			119.4,173.1 353.7,37.8 357.8,40.1 		"/>
		<polygon id="XMLID_3847_" class="st0" points="359,40.8 359,225.3 132.6,356.1 127.3,359.1 126,359.9 124.7,360.6 124.7,360.6 
			124.7,176.1 		"/>
		<polygon id="XMLID_3845_" class="st0" points="353.7,37.8 359,40.8 124.7,176.1 119.4,173.1 		"/>
	</g>
	<g id="XMLID_3755_">
		<polygon id="XMLID_3792_" class="st8" points="360.9,39.8 359,40.9 124.7,176.2 123.9,176.6 123.9,393.3 122.6,392.6 122.6,175.8 
			123.4,175.4 357.8,40.1 359.6,39 		"/>
		<polygon id="XMLID_3791_" class="st13" points="360.9,39.8 359,40.9 124.7,176.2 123.9,176.6 123.9,393.3 122.6,392.6 
			122.6,175.8 123.4,175.4 357.8,40.1 359.6,39 		"/>
		<path id="XMLID_3784_" class="st8" d="M359,40.9L124.7,176.2l0,0l-0.7,0.4v216.8l0.8,0.4l236.2-136v-33.6V39.8L359,40.9z"/>
		<path id="XMLID_3766_" class="st21" d="M359,40.9L124.7,176.2l0,0l-0.7,0.4v216.8l0.8,0.4l236.2-136v-33.6V39.8L359,40.9z"/>
		<polygon id="XMLID_3760_" class="st8" points="359.6,39 360.9,39.8 123.9,176.6 122.6,175.8 		"/>
		<polygon id="XMLID_3757_" class="st22" points="359.6,39 360.9,39.8 123.9,176.6 122.6,175.8 		"/>
	</g>
	<g id="XMLID_1245_">
		<polygon id="XMLID_3732_" class="st8" points="363,41 360.9,42.1 359,43.2 294.5,80.5 126,177.8 126,394.5 124.7,393.8 124.7,177 
			359,41.8 360.9,40.7 361.7,40.2 		"/>
		<polygon id="XMLID_3717_" class="st13" points="363,41 360.9,42.1 359,43.2 294.5,80.5 126,177.8 126,394.5 124.7,393.8 
			124.7,177 359,41.8 360.9,40.7 361.7,40.2 		"/>
		<path id="XMLID_1337_" class="st8" d="M360.9,42.1l-1.9,1.1l-64.6,37.3L126,177.8v216.8l1.3,0.8l5.2-3.1L363,259V41L360.9,42.1z"
			/>
		<polygon id="XMLID_1335_" class="st8" points="361.7,40.2 363,41 126,177.8 124.7,177 		"/>
		<polygon id="XMLID_1248_" class="st22" points="361.7,40.2 363,41 126,177.8 124.7,177 		"/>
	</g>
	<polygon id="XMLID_1195_" class="st20" points="367,45.4 363,47.7 360.9,48.9 359,50 132.6,180.7 132.6,398.4 127.3,395.3 
		127.3,177.7 359,43.9 360.9,42.8 361.7,42.4 363,43.1 	"/>
	<polygon id="XMLID_1194_" class="st0" points="361.7,42.4 367,45.4 132.6,180.7 127.3,177.7 	"/>
	<polygon id="XMLID_1193_" class="st2" points="132.6,180.7 132.6,398.4 367,263 367,45.4 	"/>
</g>
<g id="Notebook">
	<g id="XMLID_1124_">
		<g id="XMLID_1126_">
			<g id="XMLID_1127_">
				<g id="XMLID_1182_">
					<path id="XMLID_1188_" class="st7" d="M156.6,173.8c1.5-0.9,2.8-0.2,2.8,1.6s-1.2,3.9-2.8,4.8c-1.5,0.9-2.8,0.2-2.8-1.6
						C153.9,176.9,155.1,174.7,156.6,173.8z"/>
					<path id="XMLID_1184_" class="st8" d="M148.9,151.8c-3-1.7-5.9-2-8.1-0.7c-2.2,1.3-3.4,3.9-3.4,7.4c0,1.3,0.2,2.6,0.5,3.9
						l1.8-1.1c-0.2-1-0.3-1.9-0.3-2.8c0-2.7,0.9-4.7,2.4-5.6c1.6-0.9,3.7-0.7,6.1,0.7c5.3,3,9.5,10.4,9.5,16.5
						c0,1.5-0.3,2.8-0.8,3.8c-0.4,0.8-1,1.4-1.7,1.8c-0.1,0-0.1,0.1-0.2,0.1c-0.5,0.7-0.8,1.6-0.9,2.4c0.7-0.1,1.4-0.4,2.1-0.7
						c1.3-0.8,2.3-2,2.9-3.6c0.4-1.1,0.6-2.4,0.6-3.8C159.4,163.4,154.7,155.2,148.9,151.8z"/>
				</g>
				<g id="XMLID_1177_">
					<path id="XMLID_1181_" class="st7" d="M170.1,166.1c1.5-0.9,2.8-0.2,2.8,1.6s-1.2,3.9-2.8,4.8c-1.5,0.9-2.8,0.2-2.8-1.6
						S168.5,167,170.1,166.1z"/>
					<path id="XMLID_1180_" class="st8" d="M162.3,144.1c-3-1.7-5.9-2-8.1-0.7c-2.2,1.3-3.4,3.9-3.4,7.4c0,1.3,0.2,2.6,0.5,3.9
						l1.8-1.1c-0.2-1-0.3-1.9-0.3-2.8c0-2.7,0.9-4.7,2.4-5.6c1.6-0.9,3.7-0.7,6.1,0.7c5.3,3,9.5,10.4,9.5,16.5
						c0,1.5-0.3,2.8-0.8,3.8c-0.4,0.8-1,1.4-1.7,1.8c-0.1,0-0.1,0.1-0.2,0.1c-0.5,0.7-0.8,1.6-0.9,2.4c0.7-0.1,1.4-0.4,2.1-0.7
						c1.3-0.8,2.3-2,2.9-3.6c0.4-1.1,0.6-2.4,0.6-3.8C172.8,155.6,168.1,147.4,162.3,144.1z"/>
				</g>
				<g id="XMLID_772_">
					<path id="XMLID_776_" class="st7" d="M143.2,181.6c1.5-0.9,2.8-0.2,2.8,1.6s-1.2,3.9-2.8,4.8c-1.5,0.9-2.8,0.2-2.8-1.6
						C140.5,184.6,141.7,182.5,143.2,181.6z"/>
					<path id="XMLID_775_" class="st8" d="M135.5,159.5c-3-1.7-5.9-2-8.1-0.7c-2.2,1.3-3.4,3.9-3.4,7.4c0,1.3,0.2,2.6,0.5,3.9
						l1.8-1.1c-0.2-1-0.3-1.9-0.3-2.8c0-2.7,0.9-4.7,2.4-5.6c1.6-0.9,3.7-0.7,6.1,0.7c5.3,3,9.5,10.4,9.5,16.5
						c0,1.5-0.3,2.8-0.8,3.8c-0.4,0.8-1,1.4-1.7,1.8c-0.1,0-0.1,0.1-0.2,0.1c-0.5,0.7-0.8,1.6-0.9,2.4c0.7-0.1,1.4-0.4,2.1-0.7
						c1.3-0.8,2.3-2,2.9-3.6c0.4-1.1,0.6-2.4,0.6-3.8C146,171.1,141.3,162.9,135.5,159.5z"/>
				</g>
				<g id="XMLID_1174_">
					<path id="XMLID_1176_" class="st7" d="M183.5,158.3c1.5-0.9,2.8-0.2,2.8,1.6s-1.2,3.9-2.8,4.8c-1.5,0.9-2.8,0.2-2.8-1.6
						S182,159.2,183.5,158.3z"/>
					<path id="XMLID_1175_" class="st8" d="M175.7,136.3c-3-1.7-5.9-2-8.1-0.7c-2.2,1.3-3.4,3.9-3.4,7.4c0,1.3,0.2,2.6,0.5,3.9
						l1.8-1.1c-0.2-1-0.3-1.9-0.3-2.8c0-2.7,0.9-4.7,2.4-5.6c1.6-0.9,3.7-0.7,6.1,0.7c5.3,3,9.5,10.4,9.5,16.5
						c0,1.5-0.3,2.8-0.8,3.8c-0.4,0.8-1,1.4-1.7,1.8c-0.1,0-0.1,0.1-0.2,0.1c-0.5,0.7-0.8,1.6-0.9,2.4c0.7-0.1,1.4-0.4,2.1-0.7
						c1.3-0.8,2.3-2,2.9-3.6c0.4-1.1,0.6-2.4,0.6-3.8C186.3,147.9,181.5,139.7,175.7,136.3z"/>
				</g>
				<g id="XMLID_1170_">
					<path id="XMLID_1173_" class="st7" d="M196.9,150.6c1.5-0.9,2.8-0.2,2.8,1.6s-1.2,3.9-2.8,4.8c-1.5,0.9-2.8,0.2-2.8-1.6
						C194.1,153.6,195.4,151.5,196.9,150.6z"/>
					<path id="XMLID_1171_" class="st8" d="M189.1,128.6c-3-1.7-5.9-2-8.1-0.7c-2.2,1.3-3.4,3.9-3.4,7.4c0,1.3,0.2,2.6,0.5,3.9
						l1.8-1.1c-0.2-1-0.3-1.9-0.3-2.8c0-2.7,0.9-4.7,2.4-5.6c1.6-0.9,3.7-0.7,6.1,0.7c5.3,3,9.5,10.4,9.5,16.5
						c0,1.5-0.3,2.8-0.8,3.8c-0.4,0.8-1,1.4-1.7,1.8c-0.1,0-0.1,0.1-0.2,0.1c-0.5,0.7-0.8,1.6-0.9,2.4c0.7-0.1,1.4-0.4,2.1-0.7
						c1.3-0.8,2.3-2,2.9-3.6c0.4-1.1,0.6-2.4,0.6-3.8C199.7,140.1,194.9,131.9,189.1,128.6z"/>
				</g>
				<g id="XMLID_1162_">
					<path id="XMLID_1164_" class="st7" d="M210.3,142.8c1.5-0.9,2.8-0.2,2.8,1.6s-1.2,3.9-2.8,4.8c-1.5,0.9-2.8,0.2-2.8-1.6
						C207.6,145.9,208.8,143.7,210.3,142.8z"/>
					<path id="XMLID_1163_" class="st8" d="M202.5,120.8c-3-1.7-5.9-2-8.1-0.7c-2.2,1.3-3.4,3.9-3.4,7.4c0,1.3,0.2,2.6,0.5,3.9
						l1.8-1.1c-0.2-1-0.3-1.9-0.3-2.8c0-2.7,0.9-4.7,2.4-5.6c1.6-0.9,3.7-0.7,6.1,0.7c5.3,3,9.5,10.4,9.5,16.5
						c0,1.5-0.3,2.8-0.8,3.8c-0.4,0.8-1,1.4-1.7,1.8c-0.1,0-0.1,0.1-0.2,0.1c-0.5,0.7-0.8,1.6-0.9,2.4c0.7-0.1,1.4-0.4,2.1-0.7
						c1.3-0.8,2.3-2,2.9-3.6c0.4-1.1,0.6-2.4,0.6-3.8C213.1,132.4,208.4,124.2,202.5,120.8z"/>
				</g>
				<g id="XMLID_1156_">
					<path id="XMLID_1159_" class="st7" d="M223.7,135.1c1.5-0.9,2.8-0.2,2.8,1.6s-1.2,3.9-2.8,4.8c-1.5,0.9-2.8,0.2-2.8-1.6
						S222.2,136,223.7,135.1z"/>
					<path id="XMLID_1157_" class="st8" d="M216,113.1c-3-1.7-5.9-2-8.1-0.7c-2.2,1.3-3.4,3.9-3.4,7.4c0,1.3,0.2,2.6,0.5,3.9
						l1.8-1.1c-0.2-1-0.3-1.9-0.3-2.8c0-2.7,0.9-4.7,2.4-5.6c1.6-0.9,3.7-0.7,6.1,0.7c5.3,3,9.5,10.4,9.5,16.5
						c0,1.5-0.3,2.8-0.8,3.8c-0.4,0.8-1,1.4-1.7,1.8c-0.1,0-0.1,0.1-0.2,0.1c-0.5,0.7-0.8,1.6-0.9,2.4c0.7-0.1,1.4-0.4,2.1-0.7
						c1.3-0.8,2.3-2,2.9-3.6c0.4-1.1,0.6-2.4,0.6-3.8C226.5,124.6,221.8,116.4,216,113.1z"/>
				</g>
				<g id="XMLID_1151_">
					<path id="XMLID_1155_" class="st7" d="M237.2,127.4c1.5-0.9,2.8-0.2,2.8,1.6c0,1.8-1.2,3.9-2.8,4.8c-1.5,0.9-2.8,0.2-2.8-1.6
						S235.6,128.2,237.2,127.4z"/>
					<path id="XMLID_1154_" class="st8" d="M229.4,105.3c-3-1.7-5.9-2-8.1-0.7c-2.2,1.3-3.4,3.9-3.4,7.4c0,1.3,0.2,2.6,0.5,3.9
						l1.8-1.1c-0.2-1-0.3-1.9-0.3-2.8c0-2.7,0.9-4.7,2.4-5.6c1.6-0.9,3.7-0.7,6.1,0.7c5.3,3,9.5,10.4,9.5,16.5
						c0,1.5-0.3,2.8-0.8,3.8c-0.4,0.8-1,1.4-1.7,1.8c-0.1,0-0.1,0.1-0.2,0.1c-0.5,0.7-0.8,1.6-0.9,2.4c0.7-0.1,1.4-0.4,2.1-0.7
						c1.3-0.8,2.3-2,2.9-3.6c0.4-1.1,0.6-2.4,0.6-3.8C239.9,116.9,235.2,108.7,229.4,105.3z"/>
				</g>
				<g id="XMLID_1144_">
					<path id="XMLID_1146_" class="st7" d="M250.6,119.6c1.5-0.9,2.8-0.2,2.8,1.6c0,1.8-1.2,3.9-2.8,4.8c-1.5,0.9-2.8,0.2-2.8-1.6
						C247.8,122.6,249.1,120.5,250.6,119.6z"/>
					<path id="XMLID_1145_" class="st8" d="M242.8,97.6c-3-1.7-5.9-2-8.1-0.7c-2.2,1.3-3.4,3.9-3.4,7.4c0,1.3,0.2,2.6,0.5,3.9
						l1.8-1.1c-0.2-1-0.3-1.9-0.3-2.8c0-2.7,0.9-4.7,2.4-5.6c1.6-0.9,3.7-0.7,6.1,0.7c5.3,3,9.5,10.4,9.5,16.5
						c0,1.5-0.3,2.8-0.8,3.8c-0.4,0.8-1,1.4-1.7,1.8c-0.1,0-0.1,0.1-0.2,0.1c-0.5,0.7-0.8,1.6-0.9,2.4c0.7-0.1,1.4-0.4,2.1-0.7
						c1.3-0.8,2.3-2,2.9-3.6c0.4-1.1,0.6-2.4,0.6-3.8C253.3,109.1,248.6,100.9,242.8,97.6z"/>
				</g>
				<g id="XMLID_1141_">
					<path id="XMLID_1143_" class="st7" d="M264,111.9c1.5-0.9,2.8-0.2,2.8,1.6c0,1.8-1.2,3.9-2.8,4.8c-1.5,0.9-2.8,0.2-2.8-1.6
						S262.5,112.7,264,111.9z"/>
					<path id="XMLID_1142_" class="st8" d="M256.2,89.8c-3-1.7-5.9-2-8.1-0.7c-2.2,1.3-3.4,3.9-3.4,7.4c0,1.3,0.2,2.6,0.5,3.9
						l1.8-1.1c-0.2-1-0.3-1.9-0.3-2.8c0-2.7,0.9-4.7,2.4-5.6c1.6-0.9,3.7-0.7,6.1,0.7c5.3,3,9.5,10.4,9.5,16.5
						c0,1.5-0.3,2.8-0.8,3.8c-0.4,0.8-1,1.4-1.7,1.8c-0.1,0-0.1,0.1-0.2,0.1c-0.5,0.7-0.8,1.6-0.9,2.4c0.7-0.1,1.4-0.4,2.1-0.7
						c1.3-0.8,2.3-2,2.9-3.6c0.4-1.1,0.6-2.4,0.6-3.8C266.8,101.4,262,93.2,256.2,89.8z"/>
				</g>
				<g id="XMLID_1137_">
					<path id="XMLID_1139_" class="st7" d="M277.4,104.1c1.5-0.9,2.8-0.2,2.8,1.6c0,1.8-1.2,3.9-2.8,4.8c-1.5,0.9-2.8,0.2-2.8-1.6
						C274.7,107.1,275.9,105,277.4,104.1z"/>
					<path id="XMLID_1138_" class="st8" d="M269.6,82.1c-3-1.7-5.9-2-8.1-0.7s-3.4,3.9-3.4,7.4c0,1.3,0.2,2.6,0.5,3.9l1.8-1.1
						c-0.2-1-0.3-1.9-0.3-2.8c0-2.7,0.9-4.7,2.4-5.6c1.6-0.9,3.7-0.7,6.1,0.7c5.3,3,9.5,10.4,9.5,16.5c0,1.5-0.3,2.8-0.8,3.8
						c-0.4,0.8-1,1.4-1.7,1.8c-0.1,0-0.1,0.1-0.2,0.1c-0.5,0.7-0.8,1.6-0.9,2.4c0.7-0.1,1.4-0.4,2.1-0.7c1.3-0.8,2.3-2,2.9-3.6
						c0.4-1.1,0.6-2.4,0.6-3.8C280.2,93.6,275.5,85.4,269.6,82.1z"/>
				</g>
				<g id="XMLID_1134_">
					<path id="XMLID_1136_" class="st7" d="M290.8,96.4c1.5-0.9,2.8-0.2,2.8,1.6c0,1.8-1.2,3.9-2.8,4.8c-1.5,0.9-2.8,0.2-2.8-1.6
						C288.1,99.4,289.3,97.2,290.8,96.4z"/>
					<path id="XMLID_1135_" class="st8" d="M283.1,74.3c-3-1.7-5.9-2-8.1-0.7s-3.4,3.9-3.4,7.4c0,1.3,0.2,2.6,0.5,3.9l1.8-1.1
						c-0.2-1-0.3-1.9-0.3-2.8c0-2.7,0.9-4.7,2.4-5.6c1.6-0.9,3.7-0.7,6.1,0.7c5.3,3,9.5,10.4,9.5,16.5c0,1.5-0.3,2.8-0.8,3.8
						c-0.4,0.8-1,1.4-1.7,1.8c-0.1,0-0.1,0.1-0.2,0.1c-0.5,0.7-0.8,1.6-0.9,2.4c0.7-0.1,1.4-0.4,2.1-0.7c1.3-0.8,2.3-2,2.9-3.6
						c0.4-1.1,0.6-2.4,0.6-3.8C293.6,85.9,288.9,77.7,283.1,74.3z"/>
				</g>
				<g id="XMLID_1190_">
					<path id="XMLID_1133_" class="st7" d="M304.2,88.6c1.5-0.9,2.8-0.2,2.8,1.6c0,1.8-1.2,3.9-2.8,4.8c-1.5,0.9-2.8,0.2-2.8-1.6
						C301.5,91.6,302.7,89.5,304.2,88.6z"/>
					<path id="XMLID_1131_" class="st8" d="M296.5,66.6c-3-1.7-5.9-2-8.1-0.7s-3.4,3.9-3.4,7.4c0,1.3,0.2,2.6,0.5,3.9l1.8-1.1
						c-0.2-1-0.3-1.9-0.3-2.8c0-2.7,0.9-4.7,2.4-5.6c1.6-0.9,3.7-0.7,6.1,0.7c5.3,3,9.5,10.4,9.5,16.5c0,1.5-0.3,2.8-0.8,3.8
						c-0.4,0.8-1,1.4-1.7,1.8c-0.1,0-0.1,0.1-0.2,0.1c-0.5,0.7-0.8,1.6-0.9,2.4c0.7-0.1,1.4-0.4,2.1-0.7c1.3-0.8,2.3-2,2.9-3.6
						c0.4-1.1,0.6-2.4,0.6-3.8C307,78.1,302.3,69.9,296.5,66.6z"/>
				</g>
				<g id="XMLID_1186_">
					<path id="XMLID_1189_" class="st7" d="M317.7,80.9c1.5-0.9,2.8-0.2,2.8,1.6c0,1.8-1.2,3.9-2.8,4.8c-1.5,0.9-2.8,0.2-2.8-1.6
						S316.1,81.8,317.7,80.9z"/>
					<path id="XMLID_1187_" class="st8" d="M309.9,58.8c-3-1.7-5.9-2-8.1-0.7s-3.4,3.9-3.4,7.4c0,1.3,0.2,2.6,0.5,3.9l1.8-1.1
						c-0.2-1-0.3-1.9-0.3-2.8c0-2.7,0.9-4.7,2.4-5.6c1.6-0.9,3.7-0.7,6.1,0.7c5.3,3,9.5,10.4,9.5,16.5c0,1.5-0.3,2.8-0.8,3.8
						c-0.4,0.8-1,1.4-1.7,1.8c-0.1,0-0.1,0.1-0.2,0.1c-0.5,0.7-0.8,1.6-0.9,2.4c0.7-0.1,1.4-0.4,2.1-0.7c1.3-0.8,2.3-2,2.9-3.6
						c0.4-1.1,0.6-2.4,0.6-3.8C320.4,70.4,315.7,62.2,309.9,58.8z"/>
				</g>
				<g id="XMLID_1150_">
					<path id="XMLID_1172_" class="st7" d="M331.1,73.1c1.5-0.9,2.8-0.2,2.8,1.6c0,1.8-1.2,3.9-2.8,4.8c-1.5,0.9-2.8,0.2-2.8-1.6
						C328.3,76.1,329.6,74,331.1,73.1z"/>
					<path id="XMLID_1152_" class="st8" d="M323.3,51.1c-3-1.7-5.9-2-8.1-0.7s-3.4,3.9-3.4,7.4c0,1.3,0.2,2.6,0.5,3.9l1.8-1.1
						c-0.2-1-0.3-1.9-0.3-2.8c0-2.7,0.9-4.7,2.4-5.6c1.6-0.9,3.7-0.7,6.1,0.7c5.3,3,9.5,10.4,9.5,16.5c0,1.5-0.3,2.8-0.8,3.8
						c-0.4,0.8-1,1.4-1.7,1.8c-0.1,0-0.1,0.1-0.2,0.1c-0.5,0.7-0.8,1.6-0.9,2.4c0.7-0.1,1.4-0.4,2.1-0.7c1.3-0.8,2.3-2,2.9-3.6
						c0.4-1.1,0.6-2.4,0.6-3.8C333.9,62.6,329.1,54.4,323.3,51.1z"/>
				</g>
				<g id="XMLID_1147_">
					<path id="XMLID_1149_" class="st7" d="M344.5,65.4c1.5-0.9,2.8-0.2,2.8,1.6c0,1.8-1.2,3.9-2.8,4.8c-1.5,0.9-2.8,0.2-2.8-1.6
						S343,66.3,344.5,65.4z"/>
					<path id="XMLID_1148_" class="st8" d="M336.7,43.3c-3-1.7-5.9-2-8.1-0.7s-3.4,3.9-3.4,7.4c0,1.3,0.2,2.6,0.5,3.9l1.8-1.1
						c-0.2-1-0.3-1.9-0.3-2.8c0-2.7,0.9-4.7,2.4-5.6c1.6-0.9,3.7-0.7,6.1,0.7c5.3,3,9.5,10.4,9.5,16.5c0,1.5-0.3,2.8-0.8,3.8
						c-0.4,0.8-1,1.4-1.7,1.8c-0.1,0-0.1,0.1-0.2,0.1c-0.5,0.7-0.8,1.6-0.9,2.4c0.7-0.1,1.4-0.4,2.1-0.7c1.3-0.8,2.3-2,2.9-3.6
						c0.4-1.1,0.6-2.4,0.6-3.8C347.3,54.9,342.5,46.7,336.7,43.3z"/>
				</g>
				<g id="XMLID_1128_">
					<path id="XMLID_1130_" class="st7" d="M357.9,57.6c1.5-0.9,2.8-0.2,2.8,1.6s-1.2,3.9-2.8,4.8c-1.5,0.9-2.8,0.2-2.8-1.6
						C355.2,60.6,356.4,58.5,357.9,57.6z"/>
					<path id="XMLID_1129_" class="st8" d="M350.1,35.6c-3-1.7-5.9-2-8.1-0.7s-3.4,3.9-3.4,7.4c0,1.3,0.2,2.6,0.5,3.9l1.8-1.1
						c-0.2-1-0.3-1.9-0.3-2.8c0-2.7,0.9-4.7,2.4-5.6c1.6-0.9,3.7-0.7,6.1,0.7c5.3,3,9.5,10.4,9.5,16.5c0,1.5-0.3,2.8-0.8,3.8
						c-0.4,0.8-1,1.4-1.7,1.8c-0.1,0-0.1,0.1-0.2,0.1c-0.5,0.7-0.8,1.6-0.9,2.4c0.7-0.1,1.4-0.4,2.1-0.7c1.3-0.8,2.3-2,2.9-3.6
						c0.4-1.1,0.6-2.4,0.6-3.8C360.7,47.1,356,38.9,350.1,35.6z"/>
				</g>
			</g>
		</g>
		<path class="st15" d="M350.1,35.6c-3-1.7-5.9-2-8.1-0.7s-3.4,3.9-3.4,7.4c0,0.8,0.1,1.7,0.2,2.5c-0.7-0.5-1.4-1-2.1-1.4
			c-3-1.7-5.9-2-8.1-0.7s-3.4,3.9-3.4,7.4c0,0.8,0.1,1.7,0.2,2.5c-0.7-0.5-1.4-1-2.1-1.4c-3-1.7-5.9-2-8.1-0.7s-3.4,3.9-3.4,7.4
			c0,0.8,0.1,1.7,0.2,2.5c-0.7-0.5-1.4-1-2.1-1.4c-3-1.7-5.9-2-8.1-0.7s-3.4,3.9-3.4,7.4c0,0.8,0.1,1.7,0.2,2.5
			c-0.7-0.5-1.4-1-2.1-1.4c-3-1.7-5.9-2-8.1-0.7S285,70,285,73.5c0,0.8,0.1,1.6,0.2,2.5c-0.7-0.5-1.4-1-2.1-1.4
			c-3-1.7-5.9-2-8.1-0.7s-3.4,3.9-3.4,7.4c0,0.8,0.1,1.7,0.2,2.5c-0.7-0.5-1.4-1-2.1-1.4c-3-1.7-5.9-2-8.1-0.7s-3.4,3.9-3.4,7.4
			c0,0.8,0.1,1.7,0.2,2.5c-0.7-0.5-1.4-1-2.1-1.4c-3-1.7-5.9-2-8.1-0.7c-2.2,1.3-3.4,3.9-3.4,7.4c0,0.8,0.1,1.7,0.2,2.5
			c-0.7-0.5-1.4-1-2.1-1.4c-3-1.7-5.9-2-8.1-0.7c-2.2,1.3-3.4,3.9-3.4,7.4c0,0.8,0.1,1.7,0.2,2.5c-0.7-0.5-1.4-1-2.1-1.4
			c-3-1.7-5.9-2-8.1-0.7c-2.2,1.3-3.4,3.9-3.4,7.4c0,0.8,0.1,1.7,0.2,2.5c-0.7-0.5-1.4-1-2.1-1.4c-3-1.7-5.9-2-8.1-0.7
			c-2.2,1.3-3.4,3.9-3.4,7.4c0,0.8,0.1,1.7,0.2,2.5c-0.7-0.5-1.4-1-2.1-1.4c-3-1.7-5.9-2-8.1-0.7c-2.2,1.3-3.4,3.9-3.4,7.4
			c0,0.8,0.1,1.7,0.2,2.5c-0.7-0.5-1.4-1-2.1-1.4c-3-1.7-5.9-2-8.1-0.7c-2.2,1.3-3.4,3.9-3.4,7.4c0,0.8,0.1,1.7,0.2,2.5
			c-0.7-0.5-1.4-1-2.1-1.4c-3-1.7-5.9-2-8.1-0.7c-2.2,1.3-3.4,3.9-3.4,7.4c0,0.8,0.1,1.7,0.2,2.5c-0.7-0.5-1.4-1-2.1-1.4
			c-3-1.7-5.9-2-8.1-0.7c-2.2,1.3-3.4,3.9-3.4,7.4c0,0.8,0.1,1.7,0.2,2.5c-0.7-0.5-1.4-1-2.1-1.4c-3-1.7-5.9-2-8.1-0.7
			c-2.2,1.3-3.4,3.9-3.4,7.4c0,0.8,0.1,1.6,0.2,2.5c-0.7-0.5-1.4-1-2.1-1.4c-3-1.7-5.9-2-8.1-0.7c-2.2,1.3-3.4,3.9-3.4,7.4
			c0,1.3,0.2,2.6,0.5,3.9l1.8-1.1c-0.2-1-0.3-1.9-0.3-2.8c0-2.7,0.9-4.7,2.4-5.6c1.6-0.9,3.7-0.7,6.1,0.7c5.3,3,9.5,10.4,9.5,16.5
			c0,1.5-0.3,2.8-0.8,3.8c-0.4,0.8-1,1.4-1.7,1.8c-0.1,0-0.1,0.1-0.2,0.1c-0.5,0.7-0.8,1.6-0.9,2.4c0.7-0.1,1.4-0.4,2.1-0.7
			c1.3-0.8,2.3-2,2.9-3.6c0.4-1.1,0.6-2.4,0.6-3.8c0-5.4-3.1-11.9-7.4-15.9l1-0.6c-0.2-1-0.3-1.9-0.3-2.8c0-2.7,0.9-4.7,2.4-5.6
			c1.6-0.9,3.7-0.7,6.1,0.7c5.3,3,9.5,10.4,9.5,16.5c0,1.5-0.3,2.8-0.8,3.8c-0.4,0.8-1,1.4-1.7,1.8c-0.1,0-0.1,0.1-0.2,0.1
			c-0.5,0.7-0.8,1.6-0.9,2.4c0.7-0.1,1.4-0.4,2.1-0.7c1.3-0.8,2.3-2,2.9-3.6c0.4-1.1,0.6-2.4,0.6-3.8c0-5.4-3.1-11.9-7.4-15.9l1-0.6
			c-0.2-1-0.3-1.9-0.3-2.8c0-2.7,0.9-4.7,2.4-5.6c1.6-0.9,3.7-0.7,6.1,0.7c5.3,3,9.5,10.4,9.5,16.5c0,1.5-0.3,2.8-0.8,3.8
			c-0.4,0.8-1,1.4-1.7,1.8c-0.1,0-0.1,0.1-0.2,0.1c-0.5,0.7-0.8,1.6-0.9,2.4c0.7-0.1,1.4-0.4,2.1-0.7c1.3-0.8,2.3-2,2.9-3.6
			c0.4-1.1,0.6-2.4,0.6-3.8c0-5.4-3.1-11.9-7.4-15.9l1-0.6c-0.2-1-0.3-1.9-0.3-2.8c0-2.7,0.9-4.7,2.4-5.6c1.6-0.9,3.7-0.7,6.1,0.7
			c5.3,3,9.5,10.4,9.5,16.5c0,1.5-0.3,2.8-0.8,3.8c-0.4,0.8-1,1.4-1.7,1.8c-0.1,0-0.1,0.1-0.2,0.1c-0.5,0.7-0.8,1.6-0.9,2.4
			c0.7-0.1,1.4-0.4,2.1-0.7c1.3-0.8,2.3-2,2.9-3.6c0.4-1.1,0.6-2.4,0.6-3.8c0-5.4-3.1-11.9-7.4-15.9l1-0.6c-0.2-1-0.3-1.9-0.3-2.8
			c0-2.7,0.9-4.7,2.4-5.6c1.6-0.9,3.7-0.7,6.1,0.7c5.3,3,9.5,10.4,9.5,16.5c0,1.5-0.3,2.8-0.8,3.8c-0.4,0.8-1,1.4-1.7,1.8
			c-0.1,0-0.1,0.1-0.2,0.1c-0.5,0.7-0.8,1.6-0.9,2.4c0.7-0.1,1.4-0.4,2.1-0.7c1.3-0.8,2.3-2,2.9-3.6c0.4-1.1,0.6-2.4,0.6-3.8
			c0-5.4-3.1-11.9-7.4-15.9l1-0.6c-0.2-1-0.3-1.9-0.3-2.9c0-2.7,0.9-4.7,2.4-5.6c1.6-0.9,3.7-0.7,6.1,0.7c5.3,3,9.5,10.4,9.5,16.5
			c0,1.5-0.3,2.8-0.8,3.8c-0.4,0.8-1,1.4-1.7,1.8c-0.1,0-0.1,0.1-0.2,0.1c-0.5,0.7-0.8,1.6-0.9,2.4c0.7-0.1,1.4-0.4,2.1-0.7
			c1.3-0.8,2.3-2,2.9-3.6c0.4-1.1,0.6-2.4,0.6-3.8c0-5.4-3.1-11.9-7.4-15.9l1-0.6c-0.2-1-0.3-1.9-0.3-2.8c0-2.7,0.9-4.7,2.4-5.6
			c1.6-0.9,3.7-0.7,6.1,0.7c5.3,3,9.5,10.4,9.5,16.5c0,1.5-0.3,2.8-0.8,3.8c-0.4,0.8-1,1.4-1.7,1.8c-0.1,0-0.1,0.1-0.2,0.1
			c-0.5,0.7-0.8,1.6-0.9,2.4c0.7-0.1,1.4-0.4,2.1-0.7c1.3-0.8,2.3-2,2.9-3.6c0.4-1.1,0.6-2.4,0.6-3.8c0-5.4-3.1-11.9-7.4-15.9l1-0.6
			c-0.2-1-0.3-1.9-0.3-2.8c0-2.7,0.9-4.7,2.4-5.6c1.6-0.9,3.7-0.7,6.1,0.7c5.3,3,9.5,10.4,9.5,16.5c0,1.5-0.3,2.8-0.8,3.8
			c-0.4,0.8-1,1.4-1.7,1.8c-0.1,0-0.1,0.1-0.2,0.1c-0.5,0.7-0.8,1.6-0.9,2.4c0.7-0.1,1.4-0.4,2.1-0.7c1.3-0.8,2.3-2,2.9-3.6
			c0.4-1.1,0.6-2.4,0.6-3.8c0-5.4-3.1-11.9-7.4-15.9l1-0.6c-0.2-1-0.3-1.9-0.3-2.8c0-2.7,0.9-4.7,2.4-5.6c1.6-0.9,3.7-0.7,6.1,0.7
			c5.3,3,9.5,10.4,9.5,16.5c0,1.5-0.3,2.8-0.8,3.8c-0.4,0.8-1,1.4-1.7,1.8c-0.1,0-0.1,0.1-0.2,0.1c-0.5,0.7-0.8,1.6-0.9,2.4
			c0.7-0.1,1.4-0.4,2.1-0.7c1.3-0.8,2.3-2,2.9-3.6c0.4-1.1,0.6-2.4,0.6-3.8c0-5.4-3.1-11.9-7.4-15.9l1-0.6c-0.2-1-0.3-1.9-0.3-2.8
			c0-2.7,0.9-4.7,2.4-5.6s3.7-0.7,6.1,0.7c5.3,3,9.5,10.4,9.5,16.5c0,1.5-0.3,2.8-0.8,3.8c-0.4,0.8-1,1.4-1.7,1.8
			c-0.1,0-0.1,0.1-0.2,0.1c-0.5,0.7-0.8,1.6-0.9,2.4c0.7-0.1,1.4-0.4,2.1-0.7c1.3-0.8,2.3-2,2.9-3.6c0.4-1.1,0.6-2.4,0.6-3.8
			c0-5.4-3.1-11.9-7.4-15.9l1-0.6c-0.2-1-0.3-1.9-0.3-2.8c0-2.7,0.9-4.7,2.4-5.6c1.6-0.9,3.7-0.7,6.1,0.7c5.3,3,9.5,10.4,9.5,16.5
			c0,1.5-0.3,2.8-0.8,3.8c-0.4,0.8-1,1.4-1.7,1.8c-0.1,0-0.1,0.1-0.2,0.1c-0.5,0.7-0.8,1.6-0.9,2.4c0.7-0.1,1.4-0.4,2.1-0.7
			c1.3-0.8,2.3-2,2.9-3.6c0.4-1.1,0.6-2.4,0.6-3.8c0-5.4-3.1-11.9-7.4-15.9l1-0.6c-0.2-1-0.3-1.9-0.3-2.8c0-2.7,0.9-4.7,2.4-5.6
			c1.6-0.9,3.7-0.7,6.1,0.7c5.3,3,9.5,10.4,9.5,16.5c0,1.5-0.3,2.8-0.8,3.8c-0.4,0.8-1,1.4-1.7,1.8c-0.1,0-0.1,0.1-0.2,0.1
			c-0.5,0.7-0.8,1.6-0.9,2.4c0.7-0.1,1.4-0.4,2.1-0.7c1.3-0.8,2.3-2,2.9-3.6c0.4-1.1,0.6-2.4,0.6-3.8c0-5.4-3.1-11.9-7.4-15.9l1-0.6
			c-0.2-1-0.3-1.9-0.3-2.8c0-2.7,0.9-4.7,2.4-5.6c1.6-0.9,3.7-0.7,6.1,0.7c5.3,3,9.5,10.4,9.5,16.5c0,1.5-0.3,2.8-0.8,3.8
			c-0.4,0.8-1,1.4-1.7,1.8c-0.1,0-0.1,0.1-0.2,0.1c-0.5,0.7-0.8,1.6-0.9,2.4c0.7-0.1,1.4-0.4,2.1-0.7c1.3-0.8,2.3-2,2.9-3.6
			c0.4-1.1,0.6-2.4,0.6-3.8c0-5.4-3.1-11.9-7.4-15.9l1-0.6c-0.2-1-0.3-1.9-0.3-2.8c0-2.7,0.9-4.7,2.4-5.6c1.6-0.9,3.7-0.7,6.1,0.7
			c5.3,3,9.5,10.4,9.5,16.5c0,1.5-0.3,2.8-0.8,3.8c-0.4,0.8-1,1.4-1.7,1.8c-0.1,0-0.1,0.1-0.2,0.1c-0.5,0.7-0.8,1.6-0.9,2.4
			c0.7-0.1,1.4-0.4,2.1-0.7c1.3-0.8,2.3-2,2.9-3.6c0.4-1.1,0.6-2.4,0.6-3.8c0-5.4-3.1-11.9-7.4-15.9l1-0.6c-0.2-1-0.3-1.9-0.3-2.8
			c0-2.7,0.9-4.7,2.4-5.6c1.6-0.9,3.7-0.7,6.1,0.7c5.3,3,9.5,10.4,9.5,16.5c0,1.5-0.3,2.8-0.8,3.8c-0.4,0.8-1,1.4-1.7,1.8
			c-0.1,0-0.1,0.1-0.2,0.1c-0.5,0.7-0.8,1.6-0.9,2.4c0.7-0.1,1.4-0.4,2.1-0.7c1.3-0.8,2.3-2,2.9-3.6c0.4-1.1,0.6-2.4,0.6-3.8
			c0-5.4-3.1-11.9-7.4-15.9l1-0.6c-0.2-1-0.3-1.9-0.3-2.8c0-2.7,0.9-4.7,2.4-5.6c1.6-0.9,3.7-0.7,6.1,0.7c5.3,3,9.5,10.4,9.5,16.5
			c0,1.5-0.3,2.8-0.8,3.8c-0.4,0.8-1,1.4-1.7,1.8c-0.1,0-0.1,0.1-0.2,0.1c-0.5,0.7-0.8,1.6-0.9,2.4c0.7-0.1,1.4-0.4,2.1-0.7
			c1.3-0.8,2.3-2,2.9-3.6c0.4-1.1,0.6-2.4,0.6-3.8c0-5.4-3.1-11.9-7.4-15.9l1-0.6c-0.2-1-0.3-1.9-0.3-2.8c0-2.7,0.9-4.7,2.4-5.6
			c1.6-0.9,3.7-0.7,6.1,0.7c5.3,3,9.5,10.4,9.5,16.5c0,1.5-0.3,2.8-0.8,3.8c-0.4,0.8-1,1.4-1.7,1.8c-0.1,0-0.1,0.1-0.2,0.1
			c-0.5,0.7-0.8,1.6-0.9,2.4c0.7-0.1,1.4-0.4,2.1-0.7c1.3-0.8,2.3-2,2.9-3.6c0.4-1.1,0.6-2.4,0.6-3.8
			C360.7,47.1,356,38.9,350.1,35.6z"/>
	</g>
</g>
<g>
	<g>
		<path class="st8" d="M162.3,198.2l16.8-9.7c1.2-0.7,2.3-0.2,2.3,1.1s-1,3-2.2,3.7l-16.8,9.7c-1.2,0.7-2.2,0.2-2.2-1.1
			C160.1,200.6,161.1,198.9,162.3,198.2z"/>
		<path class="st8" d="M191,181.6l16.8-9.7c1.2-0.7,2.3-0.2,2.3,1.1s-1,3-2.2,3.7l-16.8,9.7c-1.2,0.7-2.2,0.2-2.2-1.1
			C188.8,184,189.8,182.3,191,181.6z"/>
		<path class="st8" d="M219.7,165.1l16.8-9.7c1.2-0.7,2.3-0.2,2.3,1.1s-1,3-2.2,3.7l-16.8,9.7c-1.2,0.7-2.2,0.2-2.2-1.1
			C217.4,167.5,218.4,165.8,219.7,165.1z"/>
		<path class="st8" d="M248.3,148.5l16.8-9.7c1.2-0.7,2.3-0.2,2.3,1.1s-1,3-2.2,3.7l-16.8,9.7c-1.2,0.7-2.2,0.2-2.2-1.1
			C246.1,150.9,247.1,149.3,248.3,148.5z"/>
		<path class="st8" d="M277,132l16.8-9.7c1.2-0.7,2.3-0.2,2.3,1.1c0,1.3-1,3-2.2,3.7l-16.8,9.7c-1.2,0.7-2.2,0.2-2.2-1.1
			C274.7,134.4,275.7,132.7,277,132z"/>
		<path class="st8" d="M305.6,115.4l16.8-9.7c1.2-0.7,2.3-0.2,2.3,1.1c0,1.3-1,3-2.2,3.7l-16.8,9.7c-1.2,0.7-2.2,0.2-2.2-1.1
			C303.4,117.8,304.4,116.2,305.6,115.4z"/>
		<path class="st8" d="M334.3,98.9l16.8-9.7c1.2-0.7,2.3-0.2,2.3,1.1c0,1.3-1,3-2.2,3.7l-16.8,9.7c-1.2,0.7-2.2,0.2-2.2-1.1
			C332.1,101.3,333.1,99.6,334.3,98.9z"/>
	</g>
	<g>
		<g>
			<path class="st1" d="M355.4,111.9l-0.2,139.6L160.3,364.1V224.5L355.4,111.9 M357.4,108.4l-199,114.9v144.2l198.8-114.9
				L357.4,108.4L357.4,108.4z"/>
		</g>
		<g>
			<line class="st23" x1="186.7" y1="350.2" x2="186.8" y2="207.9"/>
			<line class="st23" x1="215.2" y1="191.5" x2="215.1" y2="333.7"/>
			<line class="st23" x1="243.6" y1="175.1" x2="243.5" y2="317.3"/>
			<line class="st23" x1="272.1" y1="158.6" x2="271.9" y2="300.9"/>
			<line class="st23" x1="300.5" y1="142.2" x2="300.3" y2="284.5"/>
			<line class="st23" x1="328.9" y1="125.8" x2="328.7" y2="268.1"/>
		</g>
		<g>
			<line class="st23" x1="159.5" y1="258.7" x2="356.4" y2="145"/>
			<line class="st23" x1="159.5" y1="294.7" x2="356.4" y2="181.1"/>
			<line class="st23" x1="159.5" y1="330.8" x2="356.4" y2="217.1"/>
		</g>
	</g>
	<g id="Note">
		<g>
			<g id="Note_1_">
				<polygon id="XMLID_682_" class="st13" points="303,144.4 303,180 332.5,162.9 332.5,127.3 				"/>
				<g id="XMLID_674_">
					<g id="XMLID_676_">
						<path id="XMLID_680_" class="st8" d="M339.8,161c0,0-1.4,2.4-6.6,5.4c-2.9,1.7-26,15-26,15l-3.1-30.9l29.5-17l1.7,17.9
							C335.6,154.2,336,158.5,339.8,161z"/>
						<polygon id="XMLID_678_" class="st8" points="333.6,133.4 304.1,150.4 304.1,145 333.6,127.9 						"/>
						<polygon id="XMLID_677_" class="st13" points="333.6,133.4 304.1,150.4 304.1,145 333.6,127.9 						"/>
					</g>
				</g>
			</g>
		</g>
		<g id="XMLID_651_">
			<path id="XMLID_672_" class="st7" d="M299.8,146.5c0-2.2,1.6-4.9,3.5-6c1-0.6,1.9-0.6,2.5-0.2l0,0l1.6,0.9l-0.6,1.1v0.1
				c0,2.2-1.6,4.9-3.5,6l0,0l-0.7,1.3l-1.7-1l0,0h-0.1l0,0C300.2,148.3,299.8,147.6,299.8,146.5z"/>
			<path id="XMLID_671_" class="st6" d="M308.5,143.5c0,2.2-1.6,4.9-3.5,6s-3.5,0.2-3.5-2s1.6-4.9,3.5-6S308.5,141.3,308.5,143.5z"
				/>
		</g>
	</g>
	<g id="Note_2_">
		<g id="Note_3_">
			<polygon id="XMLID_728_" class="st13" points="219.5,266.2 219.5,301.8 249,284.8 249,249.2 			"/>
			<g id="XMLID_692_">
				<g id="XMLID_709_">
					<path id="XMLID_727_" class="st8" d="M256.4,282.8c0,0-1.4,2.4-6.6,5.4c-2.9,1.7-26,15-26,15l-3.1-30.9l29.5-17l1.7,17.9
						C252.1,276.1,252.6,280.3,256.4,282.8z"/>
					<polygon id="XMLID_714_" class="st8" points="250.2,255.2 220.7,272.3 220.7,266.8 250.2,249.8 					"/>
					<polygon id="XMLID_713_" class="st13" points="250.2,255.2 220.7,272.3 220.7,266.8 250.2,249.8 					"/>
				</g>
			</g>
		</g>
		<g id="XMLID_683_">
			<path id="XMLID_688_" class="st7" d="M216.4,268.4c0-2.2,1.6-4.9,3.5-6c1-0.6,1.9-0.6,2.5-0.2l0,0l1.6,0.9l-0.6,1.1v0.1
				c0,2.2-1.6,4.9-3.5,6l0,0l-0.7,1.3l-1.7-1l0,0h-0.1l0,0C216.7,270.2,216.4,269.4,216.4,268.4z"/>
			<path id="XMLID_685_" class="st6" d="M225.1,265.3c0,2.2-1.6,4.9-3.5,6s-3.5,0.2-3.5-2s1.6-4.9,3.5-6
				C223.5,262.2,225.1,263.1,225.1,265.3z"/>
		</g>
	</g>
	<path class="st8" d="M285.8,233.4l53.5-30.9c3.6-2.1,6.4-0.7,6.4,3s-2.9,8.4-6.4,10.5l-53.5,30.9c-3.6,2.1-6.4,0.7-6.4-3
		C279.3,240.1,282.2,235.5,285.8,233.4z"/>
	<g>
		<line class="st24" x1="192.7" y1="319.7" x2="209.8" y2="329.6"/>
		<line class="st24" x1="208.6" y1="310.8" x2="193.5" y2="338.1"/>
	</g>
	<path class="st25" d="M299.8,269.4c-0.1-1.4-0.6-2.7-1.6-3.7s-2.5-1.5-3.9-1.7c-2.1-0.3-4.4,0.2-6.3,1c-1.7,0.7-3.2,1.9-4.6,3.2
		c-0.6,0.6-1.2,1.1-1.9,1.6c-0.4,0.3,0.2,0.8,0.5,0.6c1.5-0.9,2.8-2,4.3-2.9c1.6-1,3.4-1.7,5.3-2c2.5-0.4,5.9,0.3,6.6,3.2
		c0.3,1.4,0.1,3-0.2,4.3c-0.3,1.5-0.7,2.9-1.3,4.2c-1.2,2.7-3.1,5.1-5.3,7c-2,1.7-4.3,3.3-6.9,3.8c-2.2,0.4-4.5,0.4-6.5-0.6
		c-0.9-0.4-1.7-1.1-2.2-1.9c-0.7-1.1-0.8-2.3-0.8-3.5c-0.1-3,0.8-6,2.2-8.6c2.8-5.4,7.9-9.7,13.6-11.6c0.8-0.3,1.6-0.5,2.4-0.7
		c0.7-0.2,0.5-1.1-0.2-1c-3.4,0.3-6.7,1.9-9.4,3.9c-2.9,2.1-5.3,4.7-7.1,7.7c-1.7,2.8-2.8,6.1-3,9.4c-0.1,2.8,0.4,5.6,2.8,7.3
		c2.1,1.4,4.8,1.8,7.3,1.5c2.9-0.3,5.4-1.7,7.6-3.4c2.7-2,4.9-4.5,6.5-7.4C299,276.2,300,272.7,299.8,269.4z"/>
	<path class="st25" d="M173.5,223l2.1,4.4c0.1,0.2,0.3,0.2,0.4,0.2l4.6-1.8c0.5-0.2,0.7,0.5,0.3,1.1l-3.3,6.2
		c-0.1,0.3-0.2,0.6-0.2,0.8l0.8,5.7c0.1,0.6-0.4,1.4-0.8,1.3l-4.1-0.5c-0.2,0-0.4,0.1-0.5,0.3l-4.1,5.3c-0.4,0.5-0.9,0.4-0.8-0.3
		l0.8-6.6c0-0.3,0-0.5-0.2-0.6l-3.3-2.4c-0.3-0.3-0.2-1.1,0.3-1.5l4.6-3.5c0.2-0.1,0.4-0.4,0.4-0.7l2.1-6.7
		C172.7,222.9,173.3,222.6,173.5,223z"/>
	<g>
		<path class="st6" d="M219.6,197l15.6-9c0.7-0.4,1.2-0.1,1.2,0.6c0,0.7-0.5,1.6-1.2,2l-15.6,9c-0.7,0.4-1.2,0.1-1.2-0.6
			C218.4,198.2,218.9,197.4,219.6,197z"/>
		<path class="st6" d="M219.6,203.4l10.8-6.2c0.7-0.4,1.2-0.1,1.2,0.6c0,0.7-0.5,1.6-1.2,2l-10.8,6.2c-0.7,0.4-1.2,0.1-1.2-0.6
			C218.4,204.7,218.9,203.8,219.6,203.4z"/>
	</g>
	<g>
		<path class="st6" d="M275.4,196.3l15.6-9c0.7-0.4,1.2-0.1,1.2,0.6c0,0.7-0.5,1.6-1.2,2l-15.6,9c-0.7,0.4-1.2,0.1-1.2-0.6
			C274.2,197.6,274.7,196.7,275.4,196.3z"/>
		<path class="st6" d="M275.4,202.7l10.8-6.2c0.7-0.4,1.2-0.1,1.2,0.6c0,0.7-0.5,1.6-1.2,2l-10.8,6.2c-0.7,0.4-1.2,0.1-1.2-0.6
			C274.2,204,274.7,203.1,275.4,202.7z"/>
	</g>
	<g>
		<path class="st6" d="M164.9,296.1l15.6-9c0.7-0.4,1.2-0.1,1.2,0.6s-0.5,1.6-1.2,2l-15.6,9c-0.7,0.4-1.2,0.1-1.2-0.6
			S164.2,296.5,164.9,296.1z"/>
		<path class="st6" d="M164.9,302.6l10.8-6.2c0.7-0.4,1.2-0.1,1.2,0.6s-0.5,1.6-1.2,2l-10.8,6.2c-0.7,0.4-1.2,0.1-1.2-0.6
			C163.7,303.8,164.2,302.9,164.9,302.6z"/>
	</g>
	<g>
		<path class="st6" d="M304.7,251.5l15.6-9c0.7-0.4,1.2-0.1,1.2,0.6c0,0.7-0.5,1.6-1.2,2l-15.6,9c-0.7,0.4-1.2,0.1-1.2-0.6
			S304,251.9,304.7,251.5z"/>
		<path class="st6" d="M304.7,257.9l10.8-6.2c0.7-0.4,1.2-0.1,1.2,0.6c0,0.7-0.5,1.6-1.2,2l-10.8,6.2c-0.7,0.4-1.2,0.1-1.2-0.6
			C303.5,259.2,304,258.3,304.7,257.9z"/>
	</g>
	<polygon class="st8" points="215.2,226.7 236.4,214.3 215.1,249.2 	"/>
	<polygon class="st19" points="215.2,226.7 236.4,214.3 215.1,249.2 	"/>
	<g>
		<g>
			<path class="st8" d="M139.2,239.1l13.1-7.6c0.7-0.4,1.3-0.1,1.3,0.6c0,0.8-0.6,1.7-1.3,2.1l-13.1,7.6c-0.7,0.4-1.3,0.1-1.3-0.6
				C137.9,240.4,138.5,239.5,139.2,239.1z"/>
			<path class="st8" d="M139.2,244.8l9.7-5.6c0.7-0.4,1.3-0.1,1.3,0.6c0,0.8-0.6,1.7-1.3,2.1l-9.7,5.6c-0.7,0.4-1.3,0.1-1.3-0.6
				S138.5,245.3,139.2,244.8z"/>
		</g>
		<g>
			<path class="st8" d="M139.2,275.1l13.1-7.6c0.7-0.4,1.3-0.1,1.3,0.6c0,0.8-0.6,1.7-1.3,2.1l-13.1,7.6c-0.7,0.4-1.3,0.1-1.3-0.6
				C137.9,276.4,138.5,275.5,139.2,275.1z"/>
			<path class="st8" d="M139.2,280.8l9.7-5.6c0.7-0.4,1.3-0.1,1.3,0.6c0,0.8-0.6,1.7-1.3,2.1l-9.7,5.6c-0.7,0.4-1.3,0.1-1.3-0.6
				S138.5,281.2,139.2,280.8z"/>
		</g>
		<g>
			<path class="st8" d="M139.2,311.1l13.1-7.6c0.7-0.4,1.3-0.1,1.3,0.6c0,0.8-0.6,1.7-1.3,2.1l-13.1,7.6c-0.7,0.4-1.3,0.1-1.3-0.6
				S138.5,311.5,139.2,311.1z"/>
			<path class="st8" d="M139.2,316.9l9.7-5.6c0.7-0.4,1.3-0.1,1.3,0.6c0,0.8-0.6,1.7-1.3,2.1l-9.7,5.6c-0.7,0.4-1.3,0.1-1.3-0.6
				S138.5,317.3,139.2,316.9z"/>
		</g>
		<g>
			<path class="st8" d="M139.2,347.1l13.1-7.6c0.7-0.4,1.3-0.1,1.3,0.6c0,0.8-0.6,1.7-1.3,2.1l-13.1,7.6c-0.7,0.4-1.3,0.1-1.3-0.6
				C137.9,348.4,138.5,347.5,139.2,347.1z"/>
			<path class="st8" d="M139.2,352.9l9.7-5.6c0.7-0.4,1.3-0.1,1.3,0.6c0,0.8-0.6,1.7-1.3,2.1l-9.7,5.6c-0.7,0.4-1.3,0.1-1.3-0.6
				C137.9,354.2,138.5,353.3,139.2,352.9z"/>
		</g>
	</g>
	<g class="st26">
		<g>
			<path d="M139.2,244.8l9.7-5.6c0.7-0.4,1.3-0.1,1.3,0.6c0,0.8-0.6,1.7-1.3,2.1l-9.7,5.6c-0.7,0.4-1.3,0.1-1.3-0.6
				S138.5,245.3,139.2,244.8z"/>
		</g>
		<g>
			<path d="M139.2,280.8l9.7-5.6c0.7-0.4,1.3-0.1,1.3,0.6c0,0.8-0.6,1.7-1.3,2.1l-9.7,5.6c-0.7,0.4-1.3,0.1-1.3-0.6
				S138.5,281.2,139.2,280.8z"/>
		</g>
		<g>
			<path d="M139.2,316.9l9.7-5.6c0.7-0.4,1.3-0.1,1.3,0.6c0,0.8-0.6,1.7-1.3,2.1l-9.7,5.6c-0.7,0.4-1.3,0.1-1.3-0.6
				S138.5,317.3,139.2,316.9z"/>
		</g>
		<g>
			<path d="M139.2,352.9l9.7-5.6c0.7-0.4,1.3-0.1,1.3,0.6c0,0.8-0.6,1.7-1.3,2.1l-9.7,5.6c-0.7,0.4-1.3,0.1-1.3-0.6
				C137.9,354.2,138.5,353.3,139.2,352.9z"/>
		</g>
	</g>
	<path class="st13" d="M367,219.1c-2.7,1.3-6.6,3.3-8.4,4.5c-17.4,11.2-30.8,37.1-29.8,57.9c0.1,1.2,0.2,2.3,0.3,3.4L367,263V219.1z
		"/>
</g>
<g id="Clock">
	<g id="Clock_2_">
		<path id="XMLID_789_" class="st7" d="M389.5,230L389.5,230L389.5,230L389.5,230l-8.7-5l0,0h-0.1l0,0c-5.5-2.8-12.7-2-20.6,3.1
			c-15.8,10.1-27.8,33.5-26.9,52.2c0.5,9.3,4,15.7,9.5,18.6l0,0l0,0l0,0l8.7,5l0,0h0.1l0,0c5.5,2.8,12.7,2,20.6-3.1
			c15.8-10.1,27.8-33.5,26.9-52.2C398.5,239.2,395,232.8,389.5,230z"/>
		<path id="XMLID_787_" class="st5" d="M351.1,303.6l-8.3-4.8l0,0h-0.1c-5.4-2.8-9-9.2-9.5-18.5c-0.4-8.3,1.8-17.6,5.7-26.2l8.7,5
			c-3.9,8.6-6.1,17.9-5.7,26.2C342.4,294.4,345.8,300.7,351.1,303.6z"/>
		<path id="XMLID_784_" class="st6" d="M372.1,300.8c15.8-10.1,27.8-33.5,26.9-52.2s-14.4-25.7-30.2-15.5
			c-15.8,10.1-27.8,33.5-26.9,52.2C342.9,304,356.4,310.9,372.1,300.8z"/>
		<path id="XMLID_782_" class="st2" d="M358.9,299.5c-9.3,0.5-10.8-10-11-14.5c-0.8-16.5,10.3-38,24.1-47c3.5-2.3,7-3.6,10-3.7
			c9.3-0.5,10.8,10,11,14.5c0.8,16.5-10.3,38-24.1,47C365.4,298.1,361.9,299.3,358.9,299.5L358.9,299.5z"/>
		<g>
			<path class="st7" d="M372.3,270c-0.1,0-0.2,0-0.3-0.1c-0.4-0.1-0.7-0.5-0.7-1V245c0-0.6,0.5-1,1-1c0.6,0,1,0.5,1,1v20.9
				l11.1-14.3c0.3-0.4,1-0.5,1.4-0.2s0.5,1,0.2,1.4l-12.9,16.6C372.9,269.9,372.6,270,372.3,270z"/>
		</g>
		<g id="XMLID_729_">
			<g id="XMLID_771_">
				<path id="XMLID_781_" class="st8" d="M366.6,287.6h-0.1c-0.2-0.1-0.4-0.3-0.3-0.5l5.6-18.9c0.1-0.2,0.3-0.4,0.5-0.3
					s0.4,0.3,0.3,0.5l-5.6,18.9C366.9,287.5,366.8,287.6,366.6,287.6z"/>
			</g>
			<path id="XMLID_730_" class="st8" d="M372,264.2c1.9-1.2,3.4-0.4,3.5,1.8c0.1,2.2-1.3,5-3.2,6.1c-1.9,1.2-3.4,0.4-3.5-1.8
				C368.7,268.2,370.1,265.4,372,264.2z"/>
		</g>
	</g>
</g>
<g id="Pencil">
	<g id="Pencil_10_">
		<path id="Shadow_8_" class="st1" d="M159.7,426c-5.9,3,9,13.6,16.5,9.5l129.8-76l15.6-16.4c0.7-0.8,0-2-1.1-1.7l-30.1,9.2
			L159.7,426z"/>
		<g id="XMLID_5266_">
			<g id="XMLID_5268_">
				<path id="XMLID_5276_" class="st27" d="M291.6,339l27.7-5.4c0.8-0.2,1.4,0.8,0.8,1.4l-18.8,21.2L291.6,339z"/>
				<path id="XMLID_5275_" class="st5" d="M320,335c0.5-0.6,0-1.6-0.8-1.4l-5.4,1.1l0,0c1.5,0.9,2.4,2.6,2.2,4.4v0.5L320,335z"/>
				<path id="XMLID_5274_" class="st8" d="M198.2,415.4l2.3-1.3l2.7-1.6l98.1-56.3c1-3,0.5-6.3-0.8-9.2c-2-4.4-5.8-7.9-8.9-8.1
					l-98,56.2l-5.2,3C191.8,396.5,201.6,413.6,198.2,415.4z"/>
				<path id="XMLID_5273_" class="st4" d="M206.8,410.5l5-2.9c1.5-0.8,0.6-4.5-1.1-8.2c-2.3-5-6.8-9.9-8.8-8.9l-3.7,2.1l-1.3,0.8
					c2-1,6.5,3.8,8.8,8.9c1.7,3.6,2.5,7.2,1.2,8.1l0,0C206.9,410.4,206.9,410.4,206.8,410.5z"/>
				<path id="XMLID_5272_" class="st8" d="M208.1,409.7c3.5-1.8-6.5-18.9-9.9-17.1l-5.1,2.9c3.5-1.8,13.4,15.3,9.9,17.1L208.1,409.7
					z"/>
				<path id="XMLID_5271_" class="st4" d="M198.2,415.4l5-2.9c3.4-1.8-6-18.3-9.6-17.3c-0.1,0-0.1,0-0.2,0.1l-5,2.9
					C191.8,396.5,201.6,413.6,198.2,415.4z"/>
				<path id="XMLID_5270_" class="st11" d="M320.2,334.1l-0.9-0.5l-20.1,11l-103.7,59.5c-0.2-0.3-0.4-0.3-0.5-0.1
					c2.9,4.6,5.2,10.4,3.2,11.4l2.3-1.3l2.7-1.6l98.1-56.3l0,0L320,335C320.3,334.7,320.3,334.4,320.2,334.1z"/>
				<path id="XMLID_5269_" class="st25" d="M177,427.5l21.2-12.1c1.5-0.8,0.7-4.4-1-8.2c-2.3-5-6.8-10-8.8-9l0,0L167,410.4
					c-4.2,2.4-0.3,11.6,4.4,15.7C173.2,427.7,175.1,428.4,177,427.5z"/>
			</g>
			<path id="XMLID_5267_" class="st13" d="M178.2,420.9c-1.2-4.8-5.1-9.5-8.6-10.5c-1.3-0.4-2.4-0.2-3.2,0.4c-3.2,3,0.5,11.4,5,15.3
				c1.7,1.5,3.6,2.2,5.5,1.4C178.5,426.6,179.1,424.2,178.2,420.9z"/>
		</g>
	</g>
</g>
<g id="Character">
	<g id="Character_4_">
		<g id="XMLID_3876_">
			<g id="XMLID_4042_">
				<path id="XMLID_4043_" class="st5" d="M456,330.7c0.7,0.3,0.8,1.5,0.8,4.1c0,1.9,0.4,5.3-1.9,5.9s-5.5,0.2-6.9-1.6
					c-1.7-2.3-2.9-4.3-5.4-7.1c-2.2-2.4-4.5-4.7-5.3-8.1c-0.7-3,0-4.3,2-5.2c2.9-1.1,7.2,2.9,9.4,3.6
					C450.6,322.8,455.3,330.4,456,330.7z"/>
			</g>
			<g id="XMLID_4040_">
				<path id="XMLID_4041_" class="st27" d="M456,328.3l-0.1,3.1c0,0-3.3,2.4-7.8,0c-0.1-0.3-0.7-4.4-0.7-4.4L456,328.3z"/>
			</g>
			<g id="XMLID_4038_">
				<path id="XMLID_4039_" class="st5" d="M430.5,347.9c0,0,0.8,2.7,1.3,5.1c0.3,1.9,0.8,5,0.1,6.4c-0.7,1.4-3.3,2.2-7.2,2.1
					c-2.6-0.1-6.6,1.6-9.4,3c-2.9,1.5-8.8,2-11.8,1.6c-3.5-0.5-7.1-2.6-7.7-4.1c-0.5-1.5,0.3-3,8.6-6.3c0.1,0,11.6-3.5,15.8-7.9
					L430.5,347.9z"/>
			</g>
			<g id="XMLID_4036_">
				<path id="XMLID_4037_" class="st27" d="M430.6,344.6c0,0-0.1,2.3-0.1,3.6c0,1.3-1.6,3.2-5.6,3c-2.8-0.2-4.8-1-4.6-3.3l0.1-3.3
					L430.6,344.6z"/>
			</g>
			<g id="XMLID_4023_">
				<path id="XMLID_4035_" class="st6" d="M459,287.3c-1.2-10.2-3.3-16.2-3.3-16.2s1.4-13.9,2.2-27.1c0.9-14.2,1.7-21.6-1.1-42.1
					c0,0-43.7-3.9-44.8,12.5c-1.2,16.5,0.5,58.5,0.9,65.7s1.5,13.7,2.7,25.4c1.2,11.6,4.7,39,4.7,39c5.2,3,10.2,0,10.2,0
					s4-32.9,3.8-41.2c-0.2-10.2-2.8-18.3-2.8-18.3s1.2-13.6,2.2-25.4c1-11.8,2-17.5,2.3-22.6l1-0.5c0,0,0.5,20.4,0.9,27.7
					c0.4,7.2,1.4,14.2,3.2,27.7c1.6,11.7,6.4,36.5,6.4,36.5c5.2,3,8.4-0.2,8.4-0.2S460.2,297.4,459,287.3z"/>
			</g>
			<g id="XMLID_3877_">
				<path id="XMLID_4022_" class="st7" d="M436.1,237.1c0,0,11.3-5.2,17-10.1c0,0-5.3,7.2-12.2,10.3c0,0-3,25.3-3,24.8l-0.8-25
					H436.1z"/>
			</g>
		</g>
		<g id="XMLID_1044_">
			<polygon id="XMLID_3875_" class="st27" points="428.3,143.2 430,158.3 444.2,157.6 442.7,140 			"/>
			<g id="XMLID_1114_">
				<path class="st6" d="M449.6,149c5.3-0.2,8,0.6,10.4,5.1c2.4,4.6,3.3,18.2,4.1,25.3c0.8,7,1,12-1.9,12.7s-14.2,1-14.2,1
					L449.6,149z"/>
				<path id="XMLID_3874_" class="st8" d="M458.5,156.8c-0.8-4.2-6.3-8.7-11.5-7.8c-1.2,0.2-2.4,0.4-3.5,0.6
					c-0.6,2.5-7.6,4.1-14.2,2.6c-2,0.5-8.6,1.8-10.3,2.3c-4.8,1.6-6.7,6.3-7.5,21.8c0,0,0.4,35.2,0.2,42.3c11.8,5,24.1,5.1,31,3.8
					c14.3-2.8,16.1-8.6,16.1-8.6l-2.1-16.1C456.8,197.5,460.3,166.3,458.5,156.8z"/>
				<path id="XMLID_1119_" class="st16" d="M458.5,156.8c-0.8-4.2-6.3-8.7-11.5-7.8c-1.2,0.2-2.4,0.4-3.5,0.6
					c-0.6,2.5-7.6,4.1-14.2,2.6c-2,0.5-8.6,1.8-10.3,2.3c-4.8,1.6-6.7,6.3-7.5,21.8c0,0,0.4,35.2,0.2,42.3c11.8,5,24.1,5.1,31,3.8
					c14.3-2.8,16.1-8.6,16.1-8.6l-2.1-16.1C456.8,197.5,460.3,166.3,458.5,156.8z"/>
				<path class="st6" d="M428.9,148.2l0.1,0.9c0,0,4.1,1,8.7,0s5.6-2.3,5.6-2.3l-0.1-1.1c0,0,1.2-0.4,1.8,1.3
					c0.6,1.8,0.7,2.2,0.7,2.2s0.5,3.2-4.9,4.9c-7.8,2.4-13.5-1.5-13.5-1.5l-2.1,0.5c0,0,1.8-4.3,2.4-5.1c0.6-0.9,1.3-0.7,1.3-0.7
					V148.2z"/>
				<g id="Device_2">
					<path id="XMLID_3908_" class="st8" d="M368.5,175.6l-0.4-0.2c-0.3-0.2-0.7-0.5-0.8-0.8l-8.9-25.1c-0.1-0.3,0-0.6,0.3-0.6
						l11.8-6.6c0.3-0.1,0.7,0,1.1,0.2l0.4,0.2c0.3,0.2,0.7,0.5,0.8,0.8l8.9,25.1c0.1,0.3,0,0.6-0.3,0.6l-11.8,6.6
						C369.3,175.9,368.8,175.8,368.5,175.6z"/>
					<path id="XMLID_3907_" class="st16" d="M368.5,175.6l-0.4-0.2c-0.3-0.2-0.7-0.5-0.8-0.8l-8.9-25.1c-0.1-0.3,0-0.6,0.3-0.6
						l11.8-6.6c0.3-0.1,0.7,0,1.1,0.2l0.4,0.2c0.3,0.2,0.7,0.5,0.8,0.8l8.9,25.1c0.1,0.3,0,0.6-0.3,0.6l-11.8,6.6
						C369.3,175.9,368.8,175.8,368.5,175.6z"/>
					<path class="st8" d="M369.5,175.8c-0.3,0-0.7,0-1-0.2l-0.4-0.2c-0.3-0.2-0.7-0.5-0.8-0.8l-8.9-25.1c0-0.1,0-0.3,0-0.4l1.7,0.9
						c-0.1,0.1-0.1,0.2,0,0.4l8.9,25.1C369,175.7,369.2,175.9,369.5,175.8z"/>
					<path class="st15" d="M369.5,175.8c-0.3,0-0.7,0-1-0.2l-0.4-0.2c-0.3-0.2-0.7-0.5-0.8-0.8l-8.9-25.1c0-0.1,0-0.3,0-0.4l1.7,0.9
						c-0.1,0.1-0.1,0.2,0,0.4l8.9,25.1C369,175.7,369.2,175.9,369.5,175.8z"/>
					<path id="XMLID_3906_" class="st8" d="M360,150.4l8.9,25.1c0.1,0.3,0.4,0.4,0.6,0.3l11.8-6.6c0.3-0.1,0.4-0.4,0.3-0.6
						l-8.9-25.1c-0.1-0.3-0.4-0.4-0.6-0.3l-11.8,6.6C360,149.8,359.9,150.1,360,150.4z"/>
					<path id="XMLID_3905_" class="st19" d="M360,150.4l8.9,25.1c0.1,0.3,0.4,0.4,0.6,0.3l11.8-6.6c0.3-0.1,0.4-0.4,0.3-0.6
						l-8.9-25.1c-0.1-0.3-0.4-0.4-0.6-0.3l-11.8,6.6C360,149.8,359.9,150.1,360,150.4z"/>
					<path id="XMLID_3904_" class="st3" d="M361.6,151.8l10.5-5.9c0.2-0.1,0.5,0.1,0.5,0.3l7.2,20.2c0.1,0.2,0,0.5-0.2,0.5l-10.5,6
						c-0.2,0.1-0.5-0.1-0.5-0.3l-7.2-20.4C361.3,152.2,361.4,151.9,361.6,151.8z"/>
					<path id="XMLID_3888_" class="st5" d="M365.9,147.3c0.2-0.1,0.4,0,0.5,0.1c0.1,0.2,0,0.4-0.1,0.5c-0.2,0.1-0.4,0-0.5-0.1
						C365.7,147.5,365.7,147.3,365.9,147.3z"/>
					<g id="XMLID_3885_">
						<path id="XMLID_3887_" class="st5" d="M365.4,148.6c0.6-0.3,1.6-0.9,2.2-1.2c0.1-0.1,0.2,0,0.3,0.1c0.1,0.1,0,0.2-0.1,0.3
							l-2.2,1.2c-0.1,0.1-0.2,0-0.3-0.1C365.3,148.8,365.3,148.7,365.4,148.6z"/>
						<path id="XMLID_3886_" class="st5" d="M364.9,148.9c0.1,0,0.2,0,0.3,0.1c0.1,0.1,0,0.2-0.1,0.3c-0.1,0-0.2,0-0.3-0.1
							C364.8,149.1,364.8,149,364.9,148.9z"/>
					</g>
					<path id="XMLID_3882_" class="st5" d="M375.2,170.6c0.3-0.1,0.7,0.1,0.8,0.4c0.1,0.4,0,0.7-0.4,0.9c-0.3,0.1-0.7-0.1-0.8-0.4
						C374.6,171,374.8,170.7,375.2,170.6z"/>
					<path class="st8" d="M368.8,151.9l1.7,2.3c0.1,0.1,0.2,0.1,0.3,0.1l2.1-0.9c0.2-0.1,0.4,0.3,0.3,0.6l-0.8,3.2
						c0,0.1,0,0.3,0,0.4l1.2,2.9c0.1,0.3,0,0.7-0.2,0.7l-2.2-0.3c-0.1,0-0.2,0-0.2,0.2l-1.3,2.7c-0.1,0.3-0.4,0.2-0.5-0.2l-0.6-3.4
						c0-0.1-0.1-0.3-0.2-0.3l-2.1-1.2c-0.2-0.1-0.3-0.6-0.1-0.8l1.9-1.8c0.1-0.1,0.1-0.2,0.1-0.4l0.1-3.5
						C368.4,151.8,368.6,151.6,368.8,151.9z"/>
				</g>
				<g id="XMLID_1116_">
					<g id="XMLID_1117_">
						<path id="XMLID_1118_" class="st27" d="M419.1,154.4c-6.5,0.6-9.3,1.8-14.2,10.6c-5.3,9.6-15.5,26.9-16.8,29.1
							c-1.8,3-2.1,7.7-0.6,10.5c1.5,2.6,6.1,3.8,11.3-2.1c6.2-7,17.8-24.1,17.8-24.1S426.3,165.4,419.1,154.4z"/>
					</g>
				</g>
				<path id="XMLID_1115_" class="st27" d="M390.2,206.6c-5-0.6-16.7-16.4-20-21.6c-3.6-5.7-7-8.4-10.1-10.7c-0.7-0.5-1.5-1.2-2-2
					c-0.4-0.8-0.6-1.7-0.6-2.5c0-1.1,0.1-2.3-0.1-3.4c-0.1-0.7-0.4-1.3-0.3-2s0.4-1.3,0.5-1.9c0.1-0.8-0.1-1.6-0.1-2.4
					c0-0.5,0-1.1,0.3-1.6c0.2-0.4,0.7-0.9,1.1-1.2c0.1-0.1,1.6-1.3,1.7-1.2l1.7,4.7l1.7,4.5c0.6,0.6,1.7,1.7,2.4,0.6
					c0.2-0.3,0.2-0.7,0.3-1c0.1-1.2,0-2.3,0.2-3.5c0.1-0.7,0.4-1.4,0.9-2c0.3-0.4,1.2-1.2,1.7-0.8c0.1,0.1,0.2,0.3,0.3,0.5
					c0.1,0.5-0.1,1.1,0,1.6c0.1,0.7,0.3,1.3,0.5,2c0.3,1.4,0.4,2.7,0.5,4.1c0,1,0,2,0.1,3.1c0.1,1.2,0.5,2.3,1.2,3.3
					c1.3,1.9,18.7,18.5,18.7,18.5L390.2,206.6z"/>
				<path class="st6" d="M420.3,154.1c-3.9-0.1-8.7,0.5-12.4,5.3c-3.7,4.8-18.4,30.7-18.4,30.7l-8.3-7.4c0,0-5.2,3-6.3,9
					c0,0,4,6.3,7.5,10.1s7.4,6.5,10.6,5.3s6.4-3.7,13.3-13.3s14.4-20.9,14.4-20.9S425.4,162,420.3,154.1z"/>
			</g>
			<g id="XMLID_1112_">
				<path id="XMLID_1113_" class="st25" d="M418.3,124.8c0,0-3.6,5.4-3.1,5.9c0.4,0.5,3,1,3,1L418.3,124.8z"/>
			</g>
			<g id="XMLID_1108_">
				<path id="XMLID_1109_" class="st5" d="M419.9,128.2c-2.3,0-4.2-1.9-4.2-4.2c0-2.3,1.9-4.2,4.2-4.2s4.2,1.9,4.2,4.2
					C424.2,126.3,422.3,128.2,419.9,128.2z M419.9,120.7c-1.8,0-3.3,1.5-3.3,3.3s1.5,3.3,3.3,3.3s3.3-1.5,3.3-3.3
					C423.2,122.2,421.8,120.7,419.9,120.7z"/>
			</g>
			<g id="XMLID_1106_">
				<path id="XMLID_1107_" class="st27" d="M428.1,109.8c-7.2,1.5-9.3,4.7-9.9,16.1c-0.7,11.9,0.5,15.7,2.1,17.3
					c1.1,1.1,6.9,1.3,9.9,0.5c3.7-1,12.1-4,16-10c4.6-7.1,5.8-16.6,0.9-20.6C440.1,107.6,431.1,109.2,428.1,109.8z"/>
			</g>
			<path class="st25" d="M428.4,144l-0.3-2.2c0,0-3.5,2-7.4,1.7C422.1,144.2,425.6,144.4,428.4,144z"/>
			<polygon id="XMLID_1105_" class="st5" points="416.1,123.1 428.9,124.8 428.4,125.7 416.1,124.1 			"/>
			<g id="XMLID_1045_">
				<g id="XMLID_1099_">
					<g id="XMLID_1100_">
						<path id="XMLID_1104_" class="st5" d="M417.8,114.6c-0.2,1.1,0,2.2,0.6,3.2c0.9,1.7,2.9,2.7,4.8,2.5c-0.3,0,0.9,1.6,1,1.7
							c0.5,0.5,1.2,0.8,1.9,0.7c0.3,1.6,0.1,3.3,1.9,4c0,0,1.1-4.4,4.9-3.9c3.7,0.6,4.2,5.3,1.9,8.2c-2.3,2.9-4.5,1.8-4.6,1.8
							c0.2,0.1,0.3,1.5,0.4,1.8c0.2,0.8,0.6,1.6,1,2.4c0.8,1.5,2,2.9,3.4,3.9c1.2,0.9,2.6,1.7,4.1,1.9c1.3,0.2,2.9-0.4,4.3-0.6
							c3.4-4.7,6.3-9.7,8.6-15.1c1-2.4,2-4.9,2.1-7.5c0-2.1-0.1-4.4-1.4-6.2c-1.1-1.5-2.8-2.5-4.7-2.8c-0.2-2.3-1.9-4.4-4-5.5
							s-4.5-1.4-6.9-1.4c-2.4,0.1-4.7,0.5-7,0.7c-4.9,0.5-9.7,0.1-14.6-0.3c-0.2,0-0.4,0-0.5,0.1c-0.2,0.1-0.2,0.3-0.3,0.5
							c-0.8,3.2,0.7,6.6,4.1,7.4C418.2,113,417.9,113.8,417.8,114.6z"/>
					</g>
				</g>
				<g id="XMLID_1048_">
					<g id="XMLID_1097_">
						<path id="XMLID_1098_" class="st5" d="M427.9,129.3l0.1-5c-1.4,0-2.5,1.1-2.6,2.4C425.4,128.1,426.5,129.2,427.9,129.3z"/>
					</g>
				</g>
			</g>
		</g>
	</g>
</g>
</svg>
